<svg version="1.1" id="Layer_1" xmlns="http://www.w3.org/2000/svg" x="0" y="0" style="enable-background:new 0 0 1366 768" xml:space="preserve" viewBox="260.18 73.43 853.46 620.05">
  <style>
    .st3{opacity:.2;fill:#020202}.st4{fill:#6b8400}.st8{fill:#ce7e3c}.st9{fill:#dd894a}.st10{opacity:.2;fill:#fff}.st11{fill:#b1e05f}.st12{fill:#90c94f}.st13,.st14{opacity:.3;fill:#fff}.st14{fill:#2f9300}.st15{fill:#3b7f0f}.st16{fill:#4d682a}.st22{fill:#376008}.st23{fill:#486d0d}.st24{fill:#426d0b}.st25{fill:#4c770e}.st26{fill:#c60936}.st27{fill:#ffb0ca}.st28,.st29{opacity:.4;fill:#020202}.st29{fill:#fff}.st30{fill:#84a800}.st34{fill:#0e0f11}
  </style>
  <path d="M261.2 637.9c4.9 22.3 32.2 30 54.8 33.2 95.7 13.5 192.2 20.9 288.8 22.2 143 1.9 289.9-10.6 419.3-71.5 9.3-4.4 20.1-12.1 17.9-22.2-.9-4.1-3.9-7.3-7-10-18.9-16.2-45.8-18.3-70.7-19.4-103.4-4.6-207-5.6-310.5-3.1-102 2.5-204.8 16.8-306.6 16.5-30.1-.1-96 8.9-86 54.3z" style="fill:#dde8cd"/>
  <path d="M1084.7 240.3c-2-5-7.6-7.4-12.6-5.4-17.8 7.1-35.8 15.2-53.1 23-18 8.1-737 314.5-737 314.5-9.9 4.2-14.4 15.6-10.2 25.4 3.5 8.1 11.8 12.6 20.1 11.7 1.8-.2 3.6-.7 5.4-1.4l680.4-290.2c9.7-4.2 14.3-15.3 10.4-25.1 13.2-5.6 26.2-11.5 39-17.2 17.1-7.7 34.9-15.8 52.3-22.7 4.9-2 7.3-7.7 5.3-12.6z" style="fill:#936731"/>
  <path d="m703 435-91 38.8c-37.2 1.5-74.5 2.1-111.4 5.4 32-13.6 65.8-28 100.1-42.7 34.1-1 68.3-.8 102.3-1.5zm-241.4 60.9c-10 4.3-19.8 8.5-29.3 12.5 33.7 1 67.5.6 101.2-1.1l24-10.2-95.9-1.2zm377.4-161c49.1-7.7 98.5-14.2 146.9-23.7 2.9-4.2 4.2-9.5 3.2-14.7-38.4 7.9-76.9 15.7-115.3 23.6-11.2 4.7-22.8 9.7-34.8 14.8zM798.9 352c-12 5.1-24.3 10.4-36.7 15.7 16.9-1.9 33.7-3.7 50.6-5.6 28.7-3.2 57.6-6.4 86.2-10.6l30.4-13c-43.5 4.4-87 9-130.5 13.5zm-35.5 29.1c-11.6.3-23.2.6-34.8.8-27.7 11.8-56 23.9-84.3 36 43.5-5.1 87.3-8.8 130.9-13.7l59-25.2c-23.6 1-47.2 1.6-70.8 2.1zm321.3-140.8c-2-5-7.6-7.4-12.6-5.4-17.8 7.1-35.8 15.2-53.1 23-3.2 1.4-28 12.1-66.7 28.6 27.3-7.9 54.6-15.8 82-23.7 17-4.9 34.2-9.9 50.7-16.3.6-2 .6-4.2-.3-6.2z" style="opacity:.3;fill:#bf9541"/>
  <path class="st3" d="M1079.3 252.8c5-2 7.4-7.6 5.4-12.6s-7.6-7.4-12.6-5.4c-17.8 7.1-35.8 15.2-53.1 23-1.4.6-6.7 2.9-15.4 6.7-20.7 19.4-41.1 39.1-64.8 54.6-19.6 12.7-41 22.3-62.3 31.7-23 10.2-46.1 20.5-69.1 30.7-61.6 27.3-123.3 54.7-187 76.7-21.9 7.6-44.1 14.5-66.2 21.4-20 6.3-40 12.5-60.1 18.8-14.2 4.4-29.1 9.2-44.1 9.6-4.5.1-8.7-.7-12.8-1.7-17.5 7.5-34.1 14.5-49.3 21-2.1 10.1-1.8 21.6-.8 31.1 9.5 1.6 19 1 28.5-.8l562.1-239.8c9.7-4.2 14.3-15.3 10.4-25.1 13.2-5.6 26.2-11.5 39-17.2 17.1-7.7 34.8-15.8 52.2-22.7z"/>
  <path class="st4" d="M722 596.7c-5.8.7-11.9-.3-17.8-3-42.6-19.3-78.6-130.8-82.6-143.4-1.9-6 1.4-12.3 7.4-14.2 6-1.9 12.3 1.4 14.2 7.4 13.8 44 45.1 118.2 70.3 129.6 4.1 1.8 6.6 1.2 8.3.4 26.8-11.8 48.2-117.2 54.9-188.3.6-6.2 6.1-10.8 12.3-10.2 6.2.6 10.8 6.1 10.2 12.3-2.9 30.8-19.8 185.4-68.3 206.8-2.7 1.4-5.8 2.2-8.9 2.6z"/>
  <path d="M730 269.5c.6 1.8 1.2 3.7 1.3 5.6 0 1.9-.6 4-2 5.3-.6.5-1.4.9-2.2.7-.7-.2-1.2-1.1-1-1.9-.1.6-.3 1.3-.7 1.8-.4.5-1.2.7-1.8.3-.7-.5-.8-1.7-1-2.5-.2 1.1-1.2 2-2.4 2.1-1.1 0-2.2-.8-2.5-1.9.3 1-.7 2.1-1.7 2-1-.1-1.7-1.3-1.3-2.2-.5.8-1.2 1.7-2.2 1.8-1 .1-1.9-1.1-1.4-1.9-.5.9-1.2 1.6-2.2 2-.2.1-.3.1-.5.1-.3-.1-.3-.4-.3-.7v-2.3c-.3.7-.6 1.5-1.2 1.9-.6.5-1.6.4-2-.2-.1-.2-.2-.5-.2-.8-.1-.8-.1-1.6-.2-2.4-.4 1-.9 2-1.3 3-.9-.1-1.7-.8-2-1.6-.3-.8-.3-1.8-.3-2.7-1.3.6-2.2 2.2-2 3.6-1-1.4-1.2-3.3-.7-4.8.6-1.6 1.9-2.9 3.6-3.3 6.9-1.9 14.1 3.1 21.4 2.9 1.3 0 2.7-.1 4-.6 1.4-.7 2.4-2.1 2.8-3.3z" style="fill:#8e7461"/>
  <path class="st3" d="M726.2 279.2c-.1.3-.1.6 0 .9.3-2.4.4-4.8.4-7.2-.1 0-.3.1-.4.1-.4 2.9-1.3 5.6-2.7 8.1.1.1.1.2.2.2.5.4 1.3.2 1.8-.3.4-.5.6-1.1.7-1.8zm3.1-8.3c-.2.3-.5.7-.8.9-.1 2.9-.4 5.7-1 8.5-.1.2-.1.5-.2.8.6.1 1.2-.2 1.8-.6v-.3c.5-3 .5-6.2.2-9.3zm-21 6.7v.1l.6-7.5h-.2c-1.2 2.9-2.5 5.9-3.7 8.8 0 .1.1.2.1.3.4.7 1.4.7 2 .2.7-.4.9-1.2 1.2-1.9zm12.5 3.1c.5-2.5.9-5 1-7.5h-.3c-.6 2.5-1.5 4.9-2.9 7.1.5.4 1 .6 1.6.6.3-.1.5-.1.6-.2zm-19.4-3.2c.3.8 1 1.4 1.8 1.6 0-3.3 1-6.6 3-9.2h-1.9c-1.2 1.1-2.3 2.4-2.9 3.9-.2.4-.3.8-.4 1.2.1 0 .1-.1.2-.1-.1.9-.1 1.8.2 2.6zm13.4 1.1c-.2.4-.1.9 0 1.3.3-2.7.4-5.3.4-8-.2-.1-.5-.1-.7-.2-.9 2.8-2 5.4-3.2 8 .3.4.8.8 1.3.7 1-.1 1.7-.9 2.2-1.8z"/>
  <path d="M731 182.4c2.6-8.7 6.8-16.9 11-24.9 5.6-10.7 11-21.4 16.6-32.1-13.4 10.7-25.8 27.8-29.6 44.5 0-18.4-2.3-35.6-9.6-51.1-2.5-5.3-5.6-9.8-10.5-13 4.4 10.1 6.5 21 8.6 31.8 1.6 8.3 3.2 16.6 4.2 25 .6 4.8.7 9.8-.8 14.5-3.2-17-12.3-32.8-25.4-44.1-2.7-2.3-6-3.7-9.5-4.1 7.6 9.3 16.4 17.6 22.9 27.7 2.8 4.3 5.2 9 6.4 14 2 8.3.9 17 2.3 25.4.9 5.2-.1 10.6-.1 15.9 0 .1 0 .3.1.4.2.2.6 0 .8-.2.8-.8 1.5-1.6 2.3-2.5 2.2-2.4 3.9-4.4 5-7.4 5.1-14.1 13.8-26.6 25.1-36.4-8.3 3-15.4 9-19.8 16.6z" style="fill:#2c7f00"/>
  <path class="st3" d="M738 148.7c-4.2 6.8-7.4 14-9 21.2 0-2.6-.1-5.3-.2-7.8-1.5-7.3-5.2-14.1-10.4-19.5 1.3 6.7 2.5 13.3 3.3 20.1.6 4.8.7 9.8-.8 14.5-.4-1.9-.8-3.8-1.3-5.6-1.8-5.4-5.3-10.1-9.8-13.5 2.4 3.9 4.4 8.1 5.6 12.6 2 8.3.9 17 2.3 25.4.8 4.5.1 9.2-.1 13.9l1.2 1.8c.6-.7 1.3-1.4 1.9-2.1 2.2-2.4 3.9-4.4 5-7.4 3.8-10.5 9.6-20.2 17.1-28.6-2.4.4-4.6 1.1-6.8 2.2-1.9 2-3.6 4.2-5 6.6 2.6-8.7 6.8-16.9 11-24.9.1-.2.2-.3.2-.5 2.1-5.3 4.5-10.5 7.3-15.4-4.5.9-8.3 3.6-11.5 7z"/>
  <path class="st3" d="M715.8 116.9c-.8-2.3-1.7-4.7-3.1-6.7-1.1-1.6-2.4-3.1-3.9-4.4 4.4 10.1 6.5 21 8.6 31.8 1.6 8.3 3.2 16.6 4.2 25 .6 4.8.7 9.8-.8 14.5-3.2-17-12.3-32.8-25.4-44.1-2.6-2.3-5.8-3.6-9.2-4.1 1.6.8 3.2 1.7 4.6 2.8 3.9 2.9 7 6.7 10 10.6 5.1 6.5 10.4 13.1 13.2 20.9 2.9 7.9 3.2 16.5 3.5 25 .1 3.1 0 5.4 0 7.8.3 2 .4 4 .3 6 8.4-27.6 7.7-57.9-2-85.1zm2 95.3c2-5.7 4.1-11.4 6.7-16.9 3.5-7.4 7.9-14.4 13.1-20.8.6-.7 1.2-1.5 1.9-2.2-3.4 2.8-6.3 6.3-8.5 10.1 2.6-8.7 6.8-16.9 11-24.9 5.6-10.7 11-21.4 16.6-32.1-.2.1-.3.3-.5.4-7.3 7.2-12.6 16.2-17.5 25.3-2.4 4.6-4.8 9.2-7 13.9-1.4 2.9-2.8 5.9-4.1 8.9-5.3 12.2-9.2 25.1-11.7 38.3z"/>
  <path d="M735.1 184.9s-9.1 15.6-4.1 22.8c5 7.2 27.5 22.2 23.2 43-4.3 20.8-28.3 23.5-28.3 23.5l-8.5-58.9 4.3-11.2c.1 0 5.8-16.6 13.4-19.2z" style="fill:#bc6f35"/>
  <path class="st8" d="M730 217.8c-.3-.3-.7.2-.4.4 4.8 4.6 8.5 10.5 11 16.6 2.3 5.7 3.1 11.5 4 17.6.1.5.7.3.7-.1 1.7-13-5.9-26-15.3-34.5zm11.3 3.9c-.2-.2-.6.1-.3.3 7.5 6.8 9.8 16.3 9 26.1 0 .4.5.4.7.1 3.1-9.8-1.8-20.4-9.4-26.5z"/>
  <path class="st8" d="M722.7 215.5c-1.4-5.6-.3-11.4 2.3-16.6 2.6-5.1 6.4-9.6 10.1-14-4.2 1.4-7.5 4.6-9.9 8.4-2.4 3.7-3.9 7.9-5.4 12 .9-7.2-.7-14.6-4.4-20.8.9 4 1.8 8.1 1.7 12.3-.1 4.1-1.4 8.4-4.3 11.3-3.2 3.2-8.6 5-12.4 7.5-4.3 2.8-8.5 6.1-11.5 10.3-5.3 7.3-6.8 17.2-4.3 25.9 2.7 9.1 9.8 16.7 18.5 20.4 6.4 2.7 13.9 3.4 20.7 2.4 3.9-.6 7.8-2 10.6-4.8 9.3-9 6.1-25.8.3-35.7-3.1-5.3-8-9.4-10.7-15-.5-1.1-.9-2.3-1.3-3.6z"/>
  <path class="st9" d="M715.8 209.6c-8.3 5.6-16.5 11.6-21.6 20.5-4.2 7.3-7.1 18.1-2.6 25.9.3.5 1 .1.9-.4-.8-4.7-1.5-9.1-.7-13.8.8-4.4 2.5-8.5 4.8-12.3 4.8-7.8 12.2-14 19.5-19.4.2-.3 0-.7-.3-.5z"/>
  <path class="st9" d="M707.5 221.7c-3.8 6.7-6.3 14-7.5 21.6-1.1 7-1.7 14.9.4 21.9.1.4.8.4.8-.1-.1-7.4-.8-14.5.4-21.9 1.2-7.3 3.6-14.3 6.7-21 .2-.6-.5-1-.8-.5zm4.5 10.4c.7 5.5 1 11 .9 16.5-.1 5.5-.9 11-1.1 16.5 0 .5.7.5.8.1 3.1-10.6 1.9-22.5.2-33.2 0-.5-.9-.4-.8.1zm8.1-4.2c2.8 6.8 4.3 14.1 4.5 21.4.1 7.5-1.7 14.4-3.6 21.6-.1.5.6.8.8.4 7.1-13.1 5.3-30.7-.9-43.7-.2-.5-1-.2-.8.3zm5.8 3.1c-.3-.3-.7.1-.4.4 7.4 7.8 6.8 17.7 6.3 27.6 0 .5.7.6.8.1 2.6-9.6 1.1-21.2-6.7-28.1z"/>
  <path class="st3" d="M754.3 240.7c-1.5 2.2-3.2 4.2-5.2 6-8.9 8.4-21.7 12.3-33.9 10.8-8.7-1.1-17.4-5.3-21.7-12.9-3.7-6.6-3.4-14.5-2.2-21.7-.9 1-1.7 2-2.5 3-5.3 7.3-6.8 17.2-4.3 25.9 2.7 9.1 9.8 16.7 18.5 20.4 6.4 2.7 13.9 3.4 20.7 2.4.7-.1 1.4-.2 2.1-.4 0 0 24-2.7 28.3-23.5.9-3.5.8-6.8.2-10zm-41.5-32.6c-.9.9-1.9 1.6-3 2.3 3.3 2.9 7.9 4.9 11.8 5.5 4.9.7 10-.4 14.3-2.9-2.1-2.1-3.9-3.9-4.9-5.4-5-7.2 4.1-22.8 4.1-22.8-.3.1-.5.2-.7.3-3.8 1.5-6.9 4.6-9.1 8.1-2.4 3.7-3.9 7.9-5.4 12 .9-7.2-.7-14.6-4.4-20.8.9 4 1.8 8.1 1.7 12.3-.2 4.2-1.5 8.5-4.4 11.4z"/>
  <path class="st10" d="M706.9 223c-2.6-1.2-5.9-2.1-8-.1-.8.8-1.2 1.8-1.5 2.9-1.2 4.1-.6 8.6 1.3 12.4 1.9 3.8 4.9 7 8.5 9.3 2.6 1.7 5.6 3 8.7 3.1 3.1.2 6.4-.8 8.5-3.1 8.4-9.2-10.7-21.3-17.5-24.5z"/>
  <path class="st3" d="M725.3 212.4c1.9 0 3.9-.3 5.6-1.3.5-.3 1.1-.8 1.7-1.5-.6-.7-1.1-1.3-1.5-1.8-1.1-1.6-1.5-3.7-1.5-5.9-.6.3-1.3.7-1.9.8-2 .5-4.7.7-6.7-.3-.4 1-.7 2-1.1 3 .1-1.2.2-2.3.2-3.5-.1 0-.1-.1-.2-.1-1.2-1-1.9-2.5-2.8-3.6-.3 3.6-1.6 7.1-4 9.7 3.4 2.8 7.7 4.5 12.2 4.5z"/>
  <path class="st4" d="M863.2 288.1s-17.8-32.3-29.1-35.6c-11.3-3.2-368.4 10-379.7 14.3C443.1 271.1 414 298 414 298l449.2-9.9z"/>
  <path class="st3" d="m462.1 297 366.6-8.1 7-35.7c-.5-.3-1.1-.5-1.6-.6-11.3-3.2-368.4 10-379.7 14.3l-.6.3 8.3 29.8z"/>
  <path class="st11" d="M865.1 229.7c.7 6.9.1 13.9-1 19.5-5.8 31.6-21.7 60.9-40.7 86.5-15.9 21.5-33.7 42.5-56.4 56.9-11.6 7.3-25.9 12.4-39.7 11-14.4-1.4-33.6-13.6-30.5-30.2 1.1-5.8 4.3-11 7.6-15.9 24.3-35.7 58.6-62.6 83.5-97.9 10.3-14.6 19.2-30.3 31.9-42.8 7.2-7 16.7-13.2 26.6-11.9 12.7 1.8 17.6 13 18.7 24.8z"/>
  <path class="st12" d="M855.7 209v-.2c-.3-.2-.6-.5-.9-.7-4.1 36.9-13.7 73.1-33 105.2-18.9 31.4-46.4 57.5-79.4 73.5-10.1 4.9-20.5 8.6-31.2 11.4 1.1.6 2.2 1.2 3.3 1.7 25.2-6.6 48.9-19.9 68.5-36.4 29.1-24.6 50-57.7 61.8-93.8 6.2-18.9 10-38.4 10.9-58.3 11.5 37.1-4.9 75.3-22.6 107.5-3.6 6.6-7.5 13.3-11.7 19.7.7-1 1.5-1.9 2.2-2.9 9.7-13.1 18.6-27.1 25.7-41.9 3.5-8 6.5-16.1 8.8-24.5 5.3-20.1 5.7-41-2.4-60.3zM723.9 339.1c26.1-29.8 58.2-53.6 82.9-84.7 7-8.7 13.8-17.6 20.6-26.4 6-7.6 12.2-15.2 17.7-23.2-.6 0-1.2-.1-1.8-.1-12.5 14-23.4 29.7-35 44.4-13.2 16.8-27.7 32-43.3 46.6-25.8 24.1-53.8 48.7-68.7 81.4 0 1.2.2 2.3.4 3.4 6.7-15.1 16.3-28.9 27.2-41.4z"/>
  <path class="st12" d="M834.3 255.8c-7.8 18-17.1 35.4-28.1 51.6-19.5 28.6-44.6 53.6-74.1 71.8-8.8 5.4-18.1 10.1-27.5 14.2.6.6 1.3 1.2 2 1.7 57-23 100.9-75.1 126.2-129.6 8.6-18.5 16.3-38.2 20.4-58.2-.3-.2-.7-.3-1-.5-5.7 16.3-10.9 32.9-17.9 49zM767 392.6c1.7-1.1 3.4-2.3 5.1-3.4-8.2 4.8-17 8.6-26.7 10.9-6.9 1.7-14 2.6-21.1 3 1 .2 2 .3 3 .4 13.8 1.4 28.1-3.6 39.7-10.9z"/>
  <path class="st12" d="M781.2 300.2c-13.5 15.3-28.4 29-43.6 42.5-13.7 12.2-27.5 24.6-38.4 39.4-.4.6-.9 1.2-1.3 1.8.2.6.5 1.2.8 1.8.4-.6.9-1.2 1.3-1.9 11.4-15.5 25.8-28.3 40.1-41 29.2-25.8 55.2-53.9 76.9-86.4 8.4-12.5 16.5-25.5 23.7-38.8-5.9 11.8-11.4 23.9-17.6 35.6-9 16.8-18.9 33.1-29.9 48.6-10.8 15.2-22.8 29.7-36.1 42.9-13.4 13.3-28.4 24.5-42.9 36.5-3.9 3.2-7.8 6.6-11.6 10.1.5.5 1 1.1 1.6 1.6 16.4-15.5 35.7-28.4 51.9-44.1 26.3-25.6 47.6-55.9 65.3-87.8 9.9-17.7 19.8-36.4 26.3-55.7-.4-.1-.9-.2-1.3-.2h-.5c-19.1 33.4-39 66-64.7 95.1z"/>
  <path class="st13" d="M795.9 311.6c-13.1 16.8-26 33.8-36.2 52.4-2.6 4.8-4.8 11.2-1.1 15.2 3.6 3.8 9.9 2.3 14.5-.2 5.8-3.2 11-7.4 15.8-11.9 19-17.3 35-38 46.8-60.8 4.5-8.6 10.3-20.7 8.2-30.8-2.6-12.4-14.6-2.4-19.8 2.7-10.2 10.4-19.2 21.9-28.2 33.4z"/>
  <path class="st14" d="M707.5 395.7c.8-7.1 2.8-14 5.6-20.5 8.3-18.8 23.1-33.8 38.3-47.7s31.2-27.1 43.1-43.9c11-15.6 18.2-34 31.8-47.4 6.7-6.6 16.9-11.9 25.2-7.6 7.9 4 9.9 14.2 10.9 22.9.1 1.1.1 2.9.1 4.9.6-2.4 1.1-4.8 1.5-7.3 1-5.6 1.6-12.7 1-19.5-1.1-11.8-6-23-18.8-24.7-10-1.4-19.4 4.8-26.6 11.9-12.7 12.5-21.7 28.2-31.9 42.8-24.9 35.3-59.2 62.2-83.5 97.9-3.3 4.9-6.5 10-7.6 15.9-1.5 9.1 3.6 16.9 10.9 22.3z"/>
  <path class="st3" d="M733.2 403.8c-11-8.7-18.7-21.8-18.8-35.8-.1-15.5 8.8-29.8 19.7-40.9 10.9-11.1 23.8-20 34.9-30.9 20.5-20.4 33.5-47.2 52.3-69.2 6.4-7.5 14.9-15.8 25.5-16.2 7-.2 11.4 2.9 15.6 6.7-2.8-6.5-7.7-11.5-15.9-12.6-10-1.4-19.4 4.8-26.6 11.9-12.7 12.5-21.7 28.2-31.9 42.8-24.9 35.3-59.2 62.2-83.5 97.9-3.3 4.9-6.5 10-7.6 15.9-3 16.6 16.2 28.8 30.5 30.2 1.8.2 3.8.2 5.8.2z"/>
  <path class="st3" d="M846.3 204.9c-3.8-.5-7.5 0-11 1.3.4 1.8 1.4 3.4 2.4 5 2.5 3.8 5.6 7.5 9.9 9.1 3.3 1.2 7.1.9 10.3-.7 1.5-.7 2.8-1.7 4-2.9-2.9-6.1-7.7-10.7-15.6-11.8z"/>
  <path class="st15" d="m859.8 213.1-.5-1.8c-.6-2.2.1-4.5 1.6-6.3 2.4-2.7 4.3-6.5 5.7-10-3.1-2.7-6.9-4.9-11-6.5-1.5 4.3-4 8.8-5.5 11.4-.8 1.4-2.1 2.4-3.6 2.9l-7.4 2.4c10.5 9.9 20.7 7.9 20.7 7.9z"/>
  <path class="st3" d="M839 205.2c10.6 9.9 20.7 7.8 20.7 7.8-1.9-.9-3.6-2.2-5-3.8-.6-.7-1.2-1.5-1.4-2.4-.3-1.7.8-3.3 1.6-4.8 1.4-2.5 2.1-5.3 2.1-8.2 2.5 2.6 6.3 3 9.3 1.7.1-.2.2-.4.2-.5-3.1-2.7-6.9-4.9-11-6.5-1.5 4.3-4 8.8-5.5 11.4-.8 1.4-2.1 2.4-3.6 2.9l-7.4 2.4z"/>
  <path class="st16" d="M708.1 398.1c1.5.2 3-1.4 2.3-2.8-1.1-2.3-3-4.2-4.7-6.1-1.5-1.7-3.1-3.3-5.5-3.4-.6 0-1.1.5-1.3 1-2.3 4.8 5 10.8 9.2 11.3z"/>
  <path class="st11" d="M725.9 386.5c-3.9-6.1-6.7-13-8.3-18.7-9.5-32.3-8.6-67.1-3-100 4.7-27.6 11.3-55.5 25.7-79.8 7.3-12.3 18.3-23.8 31.9-29.1 14.1-5.5 37.8-3.2 42.8 13.8 1.8 5.9 1.2 12.3.4 18.4-5.8 44.8-25 86.2-31.5 130.8-2.7 18.5-3.5 37.4-9.5 55.1-3.4 10-9.3 20.2-19.2 23.7-12.8 4.3-22.6-3.8-29.3-14.2z"/>
  <path class="st12" d="M744.5 401.3c0 .1.1.1.1.2.4.1.8.1 1.2.2-13.7-36.4-21.8-74.7-19-113.7 2.7-38.2 16-75.6 39.3-106.1 7.1-9.3 15.1-17.7 23.7-25.5-1.3-.1-2.6-.1-3.9 0-20.4 18-36.2 41.7-46.6 66.4-15.6 36.7-19.3 77.5-13.2 116.8 3.2 20.6 8.9 40.6 17.4 59.5-28.3-29.2-31-72.6-29.8-111.1.2-7.9.7-15.9 1.6-23.9-.2 1.3-.4 2.5-.7 3.8-2.8 16.8-4.5 34.1-4.1 51.3.5 9.1 1.6 18.1 3.4 27 4.4 21.2 13.9 40.9 30.6 55.1zm61.3-183.8c-10.2 40.2-28.9 77.5-37.2 118.3-2.3 11.4-4.5 22.9-6.8 34.4-1.9 10-4.2 20-5.5 30 .6-.2 1.1-.5 1.7-.8 5-19 7.8-38.8 11.6-58 4.4-21.9 10.7-43 18.3-64 12.6-34.7 27.2-70.9 25.5-108.5-.6-1.1-1.3-2.1-2-3 1.1 17.3-1.3 34.7-5.6 51.6z"/>
  <path class="st12" d="M742.3 347.5c-1.2-20.5-.8-41.1 1.8-61.5 4.6-35.9 16.2-71.1 35.1-102 5.7-9.3 12.1-18 19-26.3-.9-.2-1.8-.5-2.7-.6-42.3 48.4-58.5 117.9-56.4 180.7.7 21.3 2.9 43.3 8.5 64h1.2c-2.4-18.1-5.4-36-6.5-54.3zm-2-159.5c-1.1 1.9-2.1 3.7-3.2 5.6 5.3-8.4 11.8-16.1 19.8-22.8 5.7-4.8 11.8-9 18.3-12.8-1 .3-2 .6-3 1-13.6 5.2-24.6 16.7-31.9 29z"/>
  <path class="st12" d="M770.8 280.9c5.3-20.7 12.7-40.5 20.6-60.3 7-17.8 14-35.9 17.2-54.9.1-.8.2-1.5.4-2.3-.5-.5-1-.9-1.6-1.3-.1.8-.2 1.6-.3 2.3-3.3 19.8-10.6 38.7-18 57.3-15 37.9-25.9 76.4-30.8 117-1.9 15.7-3.3 31.6-3.8 47.4-.1-13.8-.7-27.7-.4-41.5.5-19.9 1.9-39.8 4.9-59.5 2.9-19.3 7.2-38.5 13.3-57.1 6.2-18.8 14.9-36.3 22.8-54.4 2.1-4.9 4.2-9.8 6-14.9-.7-.3-1.5-.5-2.2-.7-8 22.2-19.9 43.4-27.5 65.7-12.5 36.3-17.9 74.6-19.4 112.9-.8 21.2-1.3 43.3 1.8 64.4.4-.1.9-.2 1.3-.4.2-.1.3-.1.5-.2 1.9-40.3 5.1-80.2 15.2-119.5z"/>
  <path class="st13" d="M751.7 277.2c4.3-21.8 8.3-43.8 8.9-66.1.2-5.7-.8-12.8-6.2-14.7-5.1-1.9-10.4 2.6-13.5 7.1-3.9 5.7-6.7 12.1-9.2 18.6-9.5 25.1-14.6 52-14.9 78.9-.1 10.1.2 24.2 6.9 32.6 8.3 10.4 14.8-4.6 17.2-11.8 4.9-14.5 7.8-29.6 10.8-44.6z"/>
  <path class="st14" d="M794.3 156.9c2.6 7 4.1 14.4 4.5 21.8 1.1 21.5-5.6 42.5-13.2 62.6s-16.3 40.1-19.4 61.4c-2.9 19.8-.9 40.4-7.3 59.3-3.1 9.3-10.1 19.1-19.9 19-9.2 0-15.9-8.5-21.1-16.2-.7-1-1.5-2.7-2.4-4.5.6 2.5 1.3 5 2 7.5 1.7 5.7 4.5 12.6 8.3 18.7 6.7 10.5 16.5 18.6 29.2 14.2 10-3.4 15.9-13.7 19.2-23.7 6-17.7 6.8-36.6 9.5-55.1 6.5-44.7 25.8-86 31.5-130.8.8-6.1 1.3-12.5-.4-18.4-2.6-9.4-11.1-14.2-20.5-15.8z"/>
  <path class="st3" d="M766.6 161.5c14.4 2.9 27.8 11.5 34.5 24.5 7.5 14.4 5.9 32 1 47.5s-12.8 29.9-17.9 45.3c-9.5 28.7-8.9 59.9-16 89.3-2.4 10.1-6.4 21.8-16.1 27.1-6.4 3.5-11.9 2.7-17.7 1.1 5.7 4.7 12.6 7 20.8 4.2 10-3.4 15.9-13.7 19.2-23.7 6-17.7 6.8-36.6 9.5-55.1 6.5-44.7 25.8-86 31.5-130.8.8-6.1 1.3-12.5-.4-18.4-5.1-17-28.7-19.2-42.8-13.8-1.9 1-3.8 1.9-5.6 2.8z"/>
  <path class="st3" d="M755.1 400.6c3.8-1.3 7-3.6 9.6-6.5-1.2-1.5-2.9-2.6-4.6-3.5-4.1-2.3-8.8-4.4-13.5-3.8-3.7.5-7.1 2.5-9.3 5.5-1 1.4-1.8 3-2.3 4.6 5.7 4.4 12.3 6.4 20.1 3.7z"/>
  <path class="st15" d="m738.8 399.4 1.3 1.4c1.6 1.8 2.1 4.3 1.5 6.6-1 3.7-.9 8.1-.5 12 4.2 1 8.8 1.3 13.3.9-.7-4.7-.5-10.1-.3-13.3.1-1.7.8-3.2 2-4.4l5.8-5.8c-14.6-4.1-23.1 2.6-23.1 2.6z"/>
  <path class="st3" d="M761.8 396.9c-14.5-4.2-23.1 2.5-23.1 2.5 2.2 0 4.4.4 6.5 1.2.9.4 1.9.8 2.5 1.6 1.1 1.4.8 3.4.8 5.2-.1 3 .6 6 1.9 8.6-3.5-1.2-7.3.2-9.4 2.8v.6c4.2 1 8.8 1.3 13.3.9-.7-4.7-.5-10.1-.3-13.3.1-1.7.8-3.2 2-4.4l5.8-5.7z"/>
  <path class="st16" d="M792.6 155c-1.5.5-2.1 2.7-.8 3.7 2.1 1.7 4.8 2.5 7.2 3.5 2.2.9 4.5 1.6 6.8.5.5-.3.8-1 .8-1.5-.1-5.6-9.8-7.7-14-6.2z"/>
  <g>
    <path d="M587.7 326c.7.4 1.5.9 2.3.7.5-.1.9-.4 1.4-.7 15.5-10.8 26.4-27.9 29.7-46.6.2-1.4.4-3-.2-4.2-.5-.9-1.4-1.6-2.2-2.3-6.5-4.9-12.9-9.8-19.4-14.7-8.2 14.8-17.3 29-27 42.9-3.6 5.1-7.1 7.7-3.8 13.2 2.6 4.6 14.6 8.9 19.2 11.7z" style="fill:#81bc42"/>
    <path class="st3" d="M599.2 258.3c-8.2 14.8-17.3 29-27 42.9-3.6 5.1-7.1 7.7-3.8 13.2 2.7 4.5 14.7 8.9 19.2 11.6.7.4 1.5.9 2.3.7.5-.1.9-.4 1.4-.7 2.9-2 5.7-4.3 8.2-6.7-5.1-3.2-24.1-10.3-23.4-12 4.7-10.8 10.6-21.1 17.6-30.5 8.5 4 16.5 8.9 24 14.5 1.4-3.8 2.5-7.8 3.2-11.8.2-1.4.4-3-.2-4.2-.5-.9-1.4-1.6-2.2-2.3-6.4-4.9-12.8-9.8-19.3-14.7z"/>
    <path d="M445 221.9c-6.7 25.9-12.4 54.2-1.8 78.8 7.5 17.4 23 31 40.9 37.3 17.9 6.3 38.1 5.5 55.9-1.2 12.5-4.7 24.8-13.4 28.2-26.4-16.7-25.9-36.5-48.8-58.4-70.6-8.8-8.7-18.2-17.3-29.8-21.8-11.5-4.4-25.4-3.9-35 3.9z" style="fill:#8ecc52"/>
    <path class="st3" d="M528.5 263.4c-16.2-8.9-30.4-21.1-44.7-32.7-5-4-10.1-8.1-15.9-10.8-4.2-1.9-8.8-3.1-13.4-3-3.4 1.1-6.7 2.7-9.5 5.1-.7 2.5-1.3 5.1-1.9 7.7 2 .7 4.6.7 6.3 1.2 2.9.9 5.7 2.2 8.3 3.8 6.1 3.8 11.2 9.2 15.9 14.6 4.3 5 8.5 10.1 11.8 15.8 3.4 6.1 5.8 12.7 8.2 19.3 4.2 11.4 9 22.9 17.5 31.5 11.5 11.6 29.5 16.1 45.2 11.8 5.6-4.6 10.1-10.3 11.9-17.3-10-15.6-21.2-30-33.2-43.8-2.2-1-4.4-2.1-6.5-3.2z"/>
    <path d="M488.9 245.3c2.8 11.4 4.2 21.5-.7 32.7-.2.5-.4 1-.7 1.5 0-.2-.1-.5-.1-.7-2.6-14.3-13.2-25.1-26.9-29.7-.8-.3-1.6.8-1 1.4 9.1 8.8 18.4 14.1 20.8 27.8 1.5 8.6 1.2 17.4 2.7 26 1.2 6.6 3.7 16.8 8.4 24.1-2.6-1.2-5.2-2.6-7.7-4.1-26.9-17-34.5-45-34.8-75 0-.8-1.2-1.2-1.4-.3-4.3 18-.6 38.9 8.6 56.3-9.8-8.7-14.7-20-17.1-33.3-.1-.8-1.2-.7-1.3.1-1.7 15.6 8.1 30.3 21.1 37.8 5.6 9.1 12.8 17.1 21.2 22.7 23.2 15.5 64 16.1 81.9-8.4.5-.7-.3-1.8-1.1-1.3-12.9 6.9-24 12.5-39.1 12.3-5.6-.1-11.2-.8-16.7-2.1-9.6-15.6-13-30.2-16.3-47.6 2.2-6.1 6.2-12.3 6.9-18.4.8-7.7-.5-16.1-4.9-22.5-.6-.9-2-.3-1.8.7z" style="fill:#9fdd5e"/>
    <path d="M482.8 242.3c10.4 11.8 14.5 27.6 20.5 42.2 5.9 14.6 15.3 29.4 30.4 33.9 12.5 3.7 26-.9 37.2-7.5 15.6-9.2 29-23 35-40 2.5-7 3.7-14.5 4.9-21.8.7-4.1 1.3-8.2 2-12.3.7-4.4 1.4-8.8 1.5-13.3.6-22.8-14.5-43.1-31.5-58.1-7.6-6.7-16.3-13-26.4-14.2-6.7-.8-13.5.9-20.1 2.5-16.1 3.9-32.4 8-46.7 16.4-17.5 10.2-32.9 27.2-43.6 44.3-7.2 11.5.8 10.6 10.7 12.9 10 2 19.3 7.3 26.1 15z" style="fill:#99dd5e"/>
    <path class="st3" d="M603 194.4c2.6 7.6 3.3 15 1.2 23-1.4 5.3-3.9 9.8-6.4 14.4-4-6.9-8.6-13.4-14.1-19.1 1.1-5.1.5-10.2-1.2-15 6.5-9 2.1-24.4-6.2-30.7-.4-.3-1 .2-.7.6 2.8 4.9 4.6 9.4 5 15.2.2 3.2-.2 6.2-.8 9.1-8.2-14.4-25.7-26.5-37.7-31.9-.7-.3-1.1.7-.6 1.1 10.5 8.5 21.1 17.1 27.8 29.1 2.7 4.8 4.3 9.9 6.1 15-.6-.5-1.2-1-1.9-1.5-19-14.7-45.5-20.4-68.1-13.4 5.4-1.2 11.1-1.4 16.7-.6 11.2 1.5 21.7 6.5 31.3 12.6 6 3.8 11.7 8.1 16.9 12.9-8.5-3.5-18-5.4-24.6-6-6.1-.6-12.2-.3-18 .9-24.3-14.9-51.6-9.6-76.7 2.3-.6.3-.3 1.2.3 1.1 14.4-2.8 28.6-9.8 43.5-8.8 9.5.6 18.1 4.1 27 7-7.6 2.5-14.7 6.7-20.4 12.9-.4.4.3.9.7.6 13-9.8 29-10.4 44.6-8.1 8.6 1.3 17.4 3.6 25.1 7.9 5.8 3.2 9.9 8.3 15.8 11.2 2.8 4.6 5.1 9.5 6.8 14.7 1 3.1 1.8 6.2 2.3 9.4-7.7-7.7-17.7-11.1-28.6-11.9-13.5-11.1-32.2-13.6-49-10.6-.3.1-.2.5.1.5 15.6-1.1 28.8 3.3 41.9 10-18.1.5-37.6 7.4-52 14.3-.8.4-.4 1.6.5 1.4 15.3-3.2 30.3-9.8 46.1-10 17.9-.2 28.6 8.5 42 17.5-.1 10.4-5.6 20.6-12.7 29.2 9.2-8.1 16.6-18.1 20.7-29.6 1.4-3.9 2.3-7.9 3.2-11.9-2-7.2-4.6-14.1-7.8-20.8 6.6-6.3 10.3-15.9 10.3-25.2-1.7-6.8-4.7-13-8.4-18.8z"/>
    <path d="M583.3 192.3c6.5-9 2.1-24.4-6.2-30.7-.4-.3-1 .2-.7.6 2.8 4.9 4.6 9.4 5 15.2.2 3.2-.2 6.2-.8 9.1-8.2-14.4-25.7-26.5-37.7-31.9-.7-.3-1.1.7-.6 1.1 10.5 8.5 21.1 17.1 27.8 29.1 2.7 4.8 4.3 9.9 6.1 15-.6-.5-1.2-1-1.9-1.5-19-14.7-45.5-20.4-68.1-13.4 5.4-1.2 11.1-1.4 16.7-.6 11.2 1.5 21.7 6.5 31.3 12.6 6 3.8 11.7 8.1 16.9 12.9-8.5-3.5-18-5.4-24.6-6-6.1-.6-12.2-.3-18 .9-24.3-14.9-51.6-9.6-76.7 2.3-.6.3-.3 1.2.3 1.1 14.4-2.8 28.6-9.8 43.5-8.8 9.5.6 18.1 4.1 27 7-7.6 2.5-14.7 6.7-20.4 12.9-.4.4.3.9.7.6 13-9.8 29-10.4 44.6-8.1 8.6 1.3 17.4 3.6 25.1 7.9 5.8 3.2 9.9 8.3 15.8 11.2 2.8 4.6 5.1 9.5 6.8 14.7 1 3.1 1.8 6.2 2.3 9.4-7.7-7.7-17.7-11.1-28.6-11.9-13.5-11.1-32.2-13.6-49-10.6-.3.1-.2.5.1.5 15.6-1.1 28.8 3.3 41.9 10-18.1.5-37.6 7.4-52 14.3-.8.4-.4 1.6.5 1.4 15.3-3.2 30.3-9.8 46.1-10 17.9-.2 28.6 8.5 42 17.5-.1 14.8-11.2 28.9-21.8 39 .9-.1 2-.2 3.3-.3 11.5-8.8 21-20.3 25.8-33.8 1.9-5.4 3.1-11.1 4.1-16.8-2-7.3-4.7-14.4-8-21.2 6.6-6.3 10.3-15.9 10.3-25.2-1.8-6.5-4.8-12.6-8.5-18.5 2.6 7.6 3.3 15 1.2 23-1.4 5.3-3.9 9.8-6.4 14.4-4-6.9-8.6-13.4-14.1-19.1 1.3-5.4.7-10.4-1.1-15.3z" style="fill:#a9ea6a"/>
    <path class="st10" d="M534 242c5.4 6.2 12.6 12.8 20.7 11.4 2.9-.5 5.5-2 7.9-3.6 15.8-11 23.2-32.9 16.8-51-6-17-23.2-29.1-41.2-30.1-18-1.1-36 8.2-46.6 22.7-2.6 3.6-6.7 10.9-2.3 14.7 1.5 1.3 4.1 1.1 5.8 1.6 3.1.9 5.8 2.3 8.5 4 12.2 7.7 21 19.5 30.4 30.3z"/>
    <path class="st3" d="M543 151.9c8.2 5.8 16.2 11.9 23.2 19.1 11.6 11.9 20.7 26.9 22.4 43.4 1.5 14.3-2.6 28.8-9.1 41.6-12.4 24.6-36.7 45.6-64.2 44.4-.5 16.4-15.8 30.2-32.2 31.4-5.8.4-10.9-.5-15.5-2.3 5.1 3.5 10.7 6.3 16.6 8.4 17.9 6.3 38.1 5.5 55.9-1.2 11.8-4.4 23.4-12.4 27.5-24.1 1.2-.6 2.3-1.2 3.4-1.9 15.6-9.2 29-23 35-40 2.5-7 3.7-14.5 4.9-21.8.7-4.1 1.3-8.2 2-12.3.7-4.4 1.4-8.8 1.5-13.3.6-22.8-14.5-43.1-31.5-58.1-7.6-6.7-16.3-13-26.4-14.2-4.6-.5-9 .1-13.5.9z"/>
  </g>
  <g>
    <path class="st22" d="M658.9 198.8c-2.5 4-7.4 6.4-12.1 5.7-4.7-.6-8.8-4.2-10.1-8.7-.4-1.4-.6-2.8-.3-4.2.7-3.8 4.7-6.7 8.5-6.1-3-6.7-5-14-4.5-21.4.5-7.3 3.7-14.7 9.4-19.2 5.8-4.6 14.2-5.9 20.7-2.3 1.6-9.8 6.4-19 13.2-26.3 6.7-7.4 16.7-12.1 26.7-11 2.9.3 5.8 1.1 8.2 2.7 5 3.3 7.4 9.5 8 15.4.6 7.1-1.1 14.4-5.1 20.3-4 5.9-10.4 10.2-17.4 11.3 5.5 1.3 9.8 5.9 10.5 11.5.8 5.6-1.8 11.4-6.1 15-4.3 3.6-10.2 5.1-15.8 4.4 1.8 3.1.9 8.2.3 11.7-.8 4.3-3.8 7.9-7.4 10.2-4.6 3-10.4 4.1-15.6 2.6-5.3-1.6-10.2-6.3-11.1-11.6z"/>
    <path class="st3" d="M718.5 107.9c-2.4-1.6-5.3-2.4-8.2-2.7-2-.2-3.9-.2-5.9 0 4.6 6.8 7.3 14.8 7.6 23 .3 9.4-2.6 18.9-7.9 26.7 6.9-1.2 13.2-5.5 17.2-11.3 4-5.9 5.8-13.2 5.1-20.3-.4-5.9-2.9-12.1-7.9-15.4zm-48.6 102.4c5.2 1.5 11 .4 15.6-2.6 3.6-2.4 6.6-6 7.4-10.2.6-3.5 1.5-8.6-.3-11.7 5.6.7 11.5-.8 15.8-4.4 4.3-3.6 6.8-9.4 6.1-15-.8-5.5-5-10.1-10.4-11.4-1.6 2.3-3.5 4.5-5.5 6.5-2.5 2.3-7.1 4.1-8.6 1.1-2.3 6.5-7.7 11.8-14.1 14.1-2 .7-4.2 1.1-6.2.6-4.3-1-6.8-5.9-6.7-10.3.1-4.4 2.2-8.5 4.3-12.4-2.4 2-4.8 4.1-7.8 4.9-13.3 3.8-8.5-8.6-4.9-17.2-1.6.7-3.2 1.6-4.6 2.7-5.8 4.6-8.9 11.9-9.4 19.2-.5 7.3 1.5 14.7 4.5 21.4-3.8-.6-7.9 2.3-8.5 6.1-.3 1.4-.1 2.9.3 4.2 1.3 4.5 5.5 8.1 10.1 8.7 4.7.6 9.6-1.7 12.1-5.7.7 5.2 5.6 9.9 10.8 11.4z"/>
    <path class="st23" d="M677.4 170.3c.5-1.3 1.1-2.6 1.7-3.9.8-1.3 1.6-2.7 2.4-4 .2-.3.4-.6.6-.8.6-.8 1.2-1.5 1.9-2 1-.7 2.3-1.1 3.5-1.5 8.9-2.9 16.5-9.7 20.3-18.2-5.8 5.3-12.5 8.9-19.7 11.9l9.6-15c-1.4 2.2-4.9 5.1-8.8 9 1.9-6.7 3.8-13.3 5.7-20-6.6 8-10 17.9-12.7 27.9-1 1.3-1.9 2.7-2.8 4.2-.2.3-.3.5-.5.8-1.8-4.6-4.5-8.7-8.1-12.1 3 4.4 6.2 9.2 6.7 14.3-4.6 7.2-9.7 14.1-13.7 21.7-.3.6-.6 1.2-1 1.9-1.1-6-3.1-11.9-5.9-17.3-1.8-3.3-4.2-6.8-7.9-7.7 5.3 9.1 10.6 18.9 11.8 29.2-7.4 15.2-13.8 32.7-14.9 49.2 3.3.8 8-19.7 9.5-23.5 2.5-6.5 5.3-12.9 8.3-19.2 10.9.2 20.9-4.6 27.4-13.4-7.4 4.6-16 7.3-24.7 8 .4-.7.7-1.5 1.1-2.2 1-2 2.1-3.9 3.1-5.9 2.8-1.4 6-1.9 9.1-2.6 9.3-2.3 17.9-7.8 23.8-15.4-7.1 5.7-16.8 8.2-25.8 6.6z"/>
    <path class="st3" d="M698.5 145c-.6-6.9-4.6-13.7-10.9-16.5 3.5-6 5.5-12.9 6-19.8-3.7 1.9-7.1 4.5-9.9 7.6-6.7 7.4-11.5 16.5-13.2 26.3-6.4-3.5-14.9-2.2-20.7 2.3-3.7 2.9-6.3 6.9-7.8 11.4-.6 16.1 3.8 33 10.3 47.6 2.7-.9 5-2.7 6.5-5.1.7 4.3 4.1 8.1 8 10.2 1.8-.4 3.5-1 5.1-1.9 1.4-.7 2.7-1.6 3.8-2.7 3.1-3 4.5-7.3 5.6-11.5.7-2.5 1.2-5 1.7-7.5.8-3.9 1.1-8.7-1.9-11.3 4.8-1.2 9-5.4 11.7-9.6 3.8-5.8 6.2-12.7 5.7-19.5z"/>
    <path class="st24" d="M641.9 197.7c-1.1 5.4-5.5 10-10.9 11.2-5.4 1.2-11.4-1-14.6-5.4-1-1.3-1.8-2.9-2-4.5-.8-4.5 2.5-9.2 6.9-10.1-6-6.1-11.1-13.4-13.6-21.6-2.4-8.2-1.9-17.6 2.5-24.9 4.5-7.3 13.2-12.2 21.7-10.9-2.2-11.5-.6-23.4 3.8-34.2 4.4-10.8 13.4-20.1 24.8-22.9 3.3-.8 6.8-1.1 10.1-.3 6.8 1.6 12 7.4 15 13.7 3.5 7.5 4.6 16.3 2.6 24.3-2.1 8.1-7.3 15.3-14.5 19.5 6.5-.8 13.1 2.5 16.2 8.3 3.1 5.8 2.7 13.2-.6 18.9-3.3 5.7-9.2 9.7-15.5 11.2 3.3 2.7 4.3 8.6 5 12.7.9 5-.9 10.1-4 14.2-3.8 5.1-9.7 8.7-16 9.1-6.5.3-13.8-2.8-16.9-8.3z"/>
    <path class="st3" d="M670.5 73.9c-3.3-.8-6.8-.5-10.1.3-2.2.6-4.4 1.4-6.5 2.4 7.8 5.6 14 13.3 17.7 22.2 4.2 10.2 4.8 21.8 2.1 32.4 7.1-4.1 12.3-11.3 14.3-19.3 2.1-8.1 1-16.8-2.6-24.3-2.9-6.3-8.1-12.1-14.9-13.7zm-11.9 132c6.3-.4 12.2-4.1 16-9.1 3-4.1 4.8-9.2 4-14.2-.7-4.1-1.8-10.1-5-12.7 6.4-1.5 12.3-5.5 15.5-11.2 3.3-5.7 3.7-13.1.6-18.9-3.1-5.7-9.5-9.1-16-8.3-.8 3.2-2 6.4-3.5 9.3-1.7 3.6-6.1 7.3-9.1 4.6.1 8-3.6 16-9.8 21.2-1.9 1.6-4.1 2.9-6.6 3.2-5.1.6-9.8-3.7-11.5-8.6-1.7-4.9-1-10.3-.3-15.4-1.8 3.2-3.7 6.4-6.6 8.6-13.1 9.6-12.8-6-12.3-16.9-1.5 1.4-2.8 3.1-3.9 4.8-4.5 7.3-5 16.7-2.5 24.9 2.4 8.2 7.5 15.5 13.6 21.6-4.4.9-7.7 5.7-6.9 10.1.3 1.6 1.1 3.2 2 4.5 3.3 4.4 9.3 6.6 14.6 5.4 5.4-1.2 9.8-5.8 10.9-11.2 3.2 5.6 10.5 8.7 16.8 8.3z"/>
    <path class="st25" d="M650.6 159c0-1.7.1-3.3.3-5 .3-1.8.7-3.6 1-5.4l.3-1.2c.3-1.1.7-2.1 1.3-3 .8-1.2 2.1-2.1 3.2-3 8.6-6.8 14.1-17.3 14.9-28.2-4.3 8.1-10.1 14.8-16.8 21.1l4.5-20.4c-.7 3-3.3 7.6-6 13.4-.6-8.1-1.2-16.1-1.8-24.2-4 11.4-3.8 23.7-2.7 35.8-.5 1.8-1 3.7-1.4 5.7-.1.4-.1.7-.2 1.1-3.8-4.3-8.5-7.8-13.8-10 5.1 3.5 10.5 7.6 13.2 13-2.1 9.8-5 19.4-6.2 29.3l-.3 2.4c-3.6-6.2-8.2-11.8-13.5-16.6-3.3-3-7.4-5.7-11.8-5.3 9.5 7.9 19.2 16.4 24.7 27.2-2 19.7-2 41.4 3.5 60 4-.4.8-24.9.9-29.6.1-8.1.6-16.3 1.4-24.4 12-4.1 21-13.4 24.6-25.8-6.3 8-14.6 14.5-23.8 18.8.1-1 .2-1.9.3-2.9.3-2.6 1.4-10.6 1.8-13.2 2.5-2.7 27-11.8 28.1-27.5-5.6 9.3-15.2 16-25.7 17.9z"/>
    <path class="st26" d="M627.4 231.7c-6.2 2.8-11.8 7.4-15.7 13.8-13.3 21.6-6.5 53.2 19.1 61.7 14 4.6 29.8-.7 38.3-12.8 8.2-11.6 10.3-28.8 6.3-42.3-6.5-21.9-30.1-28.6-48-20.4z"/>
    <path class="st27" d="M647.2 309.5c15.6-2.2 21.8-15.1 21.8-15.1-30.8 15.2-57-1.2-57-1.2s2.3 8.1 13.5 13.1c4.7 2.1 8.7 5.6 11.4 10 .5.8 1.1 1.6 1.7 2.3 6 7.6 12.8 12.6 8.4 23.7-3 7.7-10.1 12.7-17 16.8-7.1 4.3-17.9 9.2-15.5 19.5 2 8.2 10.2 16.1 18.7 16.3.8 0 1.3-1.2.4-1.5-6.6-2.5-14.2-7.6-14.6-15.5-.4-8.8 8.8-11 15.1-14 7.5-3.7 14.9-8.7 19.2-16.1 3.7-6.4 4.7-21.4-5.8-31.4-.8-.8-1.5-1.6-2.2-2.4-1.3-1.7-.2-4.2 1.9-4.5z"/>
    <path class="st28" d="m669 294.4 1.2-1.8c-14.4 1.8-29.9-.3-40.3-10.3-8.3-8-12-20.4-9.5-31.6 2.4-10.7 9.1-15.8 17.1-21.9-3.5.5-6.9 1.5-10.2 2.9-6.2 2.8-11.8 7.4-15.7 13.8-13.3 21.6-6.5 53.2 19.1 61.7 14 4.6 29.8-.8 38.3-12.8z"/>
    <path class="st29" d="M633.7 257.9c-.3 11.8 7.6 24.1 22 21.1 9.3-2 15.4-11.5 15-20.8-.4-9.9-8.6-20-19.1-19.6-12 .4-17.6 9.7-17.9 19.3z"/>
    <path class="st29" d="M648.1 259c4.5 4.6 12.4 6.2 16.8-.6 2.8-4.4 1.3-10.5-2.5-13.9-4.1-3.6-11.2-4.3-15.1 0-4.4 5-2.9 10.8.8 14.5z"/>
    <path class="st28" d="M610.7 291c4.3 7.3 11 13.2 20 16.2 14 4.6 29.8-.7 38.3-12.8 2.3-3.3 4.1-7 5.5-11-18.9 11.2-42.9 14.2-63.8 7.6zm1.5-46.3c8.5-4.3 18.1-6.5 27.6-6.4 12.5.2 24.9 4.6 34.9 12.1-7.2-20.5-29.9-26.6-47.3-18.7-6 2.7-11.4 7-15.2 13z"/>
  </g>
  <g>
    <path class="st22" d="M688.3 226.9c-.8 3.2-3.5 5.8-6.7 6.3-3.2.6-6.7-.9-8.5-3.6-.6-.8-1-1.7-1.1-2.7-.4-2.7 1.7-5.4 4.3-5.8-3.4-3.8-6.2-8.2-7.5-13.1-1.2-4.9-.7-10.4 2.2-14.7 2.8-4.2 8.2-6.9 13.1-5.9-1-6.8.3-13.9 3.1-20.1 2.9-6.3 8.5-11.5 15.3-12.9 2-.4 4-.5 6 .1 4 1.1 6.9 4.7 8.5 8.5 1.9 4.5 2.3 9.7.9 14.5-1.4 4.7-4.7 8.9-9.1 11.1 3.9-.3 7.7 1.8 9.4 5.3 1.7 3.5 1.2 7.9-.9 11.1-2.1 3.3-5.7 5.5-9.5 6.2 1.9 1.7 2.3 5.2 2.6 7.7.4 3-.8 6-2.7 8.3-2.4 2.9-6 4.9-9.7 5-3.8 0-7.9-2-9.7-5.3z"/>
    <path class="st3" d="M708.5 154.4c-1.9-.5-4-.5-6-.1-1.3.3-2.6.7-3.9 1.3 4.5 3.5 8 8.2 9.9 13.6 2.2 6.1 2.3 13 .4 19.3 4.3-2.3 7.6-6.4 9-11.1 1.4-4.7 1-9.9-.9-14.5-1.6-3.9-4.5-7.4-8.5-8.5z"/>
    <path class="st3" d="M698 232.1c3.8-.1 7.3-2.1 9.7-5 1.9-2.3 3.1-5.3 2.7-8.3-.3-2.5-.8-6-2.6-7.7 3.8-.7 7.4-2.9 9.5-6.2s2.5-7.6.9-11.1c-1.7-3.5-5.4-5.6-9.2-5.3-.6 1.9-1.3 3.7-2.3 5.4-1.1 2.1-3.8 4.2-5.5 2.5-.2 4.8-2.6 9.4-6.4 12.3-1.2.9-2.5 1.6-4 1.7-3.1.2-5.7-2.4-6.6-5.4-.8-2.9-.3-6.1.2-9.1-1.1 1.8-2.3 3.7-4.1 4.9-8 5.3-7.4-3.9-6.8-10.3-.9.8-1.8 1.7-2.4 2.7-2.8 4.2-3.4 9.7-2.2 14.7 1.2 4.9 4.1 9.4 7.5 13.1-2.6.4-4.7 3.1-4.3 5.8.1 1 .5 1.9 1.1 2.7 1.8 2.7 5.3 4.2 8.5 3.6 3.2-.6 6-3.2 6.7-6.3 1.7 3.4 5.8 5.4 9.6 5.3z"/>
    <path class="st23" d="M694.5 204.2c0-1 .1-2 .3-2.9.2-1.1.5-2.1.8-3.2.1-.2.1-.5.2-.7.2-.6.5-1.2.9-1.8.5-.7 1.3-1.2 2-1.7 5.3-3.8 8.8-9.8 9.6-16.3-2.7 4.7-6.4 8.5-10.5 12 1-4 2.1-8 3.2-12-.5 1.8-2.2 4.4-3.9 7.8-.1-4.8-.3-9.6-.4-14.4-2.7 6.6-2.9 13.9-2.5 21.1-.4 1.1-.7 2.2-1 3.3 0 .2-.1.4-.2.6-2.1-2.6-4.8-4.8-7.9-6.3 2.9 2.2 6 4.8 7.5 8-1.5 5.7-3.4 11.4-4.4 17.2-.1.5-.2 1-.2 1.4-2-3.8-4.5-7.2-7.6-10.2-1.9-1.8-4.2-3.6-6.8-3.4 5.4 4.9 10.9 10.2 13.9 16.8-1.7 11.6-2.2 24.5.5 35.6 2.4-.1 1.1-14.7 1.3-17.5.3-4.8.8-9.6 1.4-14.4 7.2-2.1 12.8-7.4 15.2-14.6-3.9 4.6-9 8.2-14.6 10.5.1-.6.2-1.1.3-1.7.3-1.5.5-3 .8-4.5 1.6-1.5 3.6-2.5 5.4-3.6 5.7-3.5 10.1-8.9 12.4-15.1-3.6 5.4-9.4 9.1-15.7 10z"/>
    <path class="st3" d="M703.1 183c-1.8-4.4-5.9-8.1-10.7-8.6 1-4.7.9-9.7-.2-14.3-2 2.1-3.7 4.5-4.9 7.1-2.9 6.3-4.1 13.3-3.1 20.1-5-1-10.3 1.7-13.1 5.9-1.8 2.7-2.7 5.9-2.8 9.2 3 10.7 9.4 21 16.8 29.2 1.6-1.2 2.7-2.9 3.2-4.7 1.4 2.7 4.4 4.5 7.4 5.1 1.1-.6 2.1-1.4 2.9-2.3.8-.8 1.4-1.6 1.9-2.6 1.4-2.6 1.5-5.8 1.3-8.8-.1-1.8-.2-3.6-.4-5.3-.3-2.8-1.1-5.9-3.7-7 2.9-1.8 4.8-5.5 5.7-8.8 1.3-4.7 1.5-9.8-.3-14.2z"/>
    <path class="st24" d="M676.8 229.7c.4 3.8-1.6 7.7-4.8 9.7-3.3 1.9-7.7 1.7-10.8-.5-.9-.7-1.8-1.5-2.3-2.6-1.5-2.8-.3-6.6 2.4-8.1-5.3-2.8-10.2-6.5-13.5-11.4-3.3-4.9-5-11.2-3.6-17 1.4-5.8 6.2-10.8 12-11.8-3.9-7.1-5.3-15.3-4.7-23.4.6-8.1 4.6-16.1 11.5-20.3 2-1.2 4.2-2.1 6.6-2.3 4.8-.4 9.5 2.3 12.8 5.9 3.9 4.2 6.5 9.8 6.8 15.5.3 5.8-1.6 11.7-5.5 15.9 4.1-1.9 9.2-1.1 12.4 2.1 3.3 3.2 4.5 8.1 3.6 12.6-1 4.4-4 8.3-7.9 10.7 2.7 1.1 4.7 4.7 6 7.3 1.6 3.1 1.5 6.9.4 10.2-1.4 4.2-4.6 7.8-8.6 9.4-4.1 1.6-9.5 1.1-12.8-1.9z"/>
    <path class="st3" d="M669.7 142c-2.3.2-4.6 1.1-6.6 2.3-1.4.8-2.6 1.8-3.7 3 6.3 2 12.1 5.8 16.3 10.9 4.9 5.8 7.8 13.3 8.2 21 3.8-4.2 5.7-10.1 5.4-15.8-.3-5.8-2.9-11.3-6.8-15.5-3.4-3.5-8-6.2-12.8-5.9z"/>
    <path class="st3" d="M689.6 231.6c4.1-1.6 7.2-5.3 8.6-9.4 1.1-3.3 1.2-7.1-.4-10.2-1.3-2.6-3.3-6.3-6-7.3 3.9-2.3 6.9-6.2 7.9-10.7 1-4.4-.3-9.4-3.6-12.6-3.2-3.1-8.2-4-12.3-2.1.1 2.3 0 4.6-.3 6.9-.4 2.7-2.5 6.1-5 5 1.7 5.3 1 11.3-2 16-.9 1.4-2.1 2.8-3.7 3.5-3.3 1.5-7.3-.4-9.4-3.2-2.1-2.9-2.8-6.6-3.5-10.1-.5 2.5-1.1 5-2.5 7-6.6 9.1-9.7-1.2-11.7-8.6-.7 1.3-1.2 2.6-1.6 4-1.4 5.8.2 12 3.6 17 3.3 4.9 8.2 8.6 13.5 11.4-2.7 1.5-3.9 5.4-2.4 8.1.5 1 1.4 1.9 2.3 2.6 3.1 2.2 7.5 2.4 10.8.5 3.3-1.9 5.3-5.9 4.8-9.7 3.4 3 8.8 3.5 12.9 1.9z"/>
    <path class="st25" d="M674.4 202.3c-.4-1.1-.6-2.2-.8-3.3-.2-1.3-.3-2.5-.5-3.8v-.8c0-.8 0-1.5.2-2.3.3-1 .9-1.8 1.5-2.7 4.2-6.3 5.7-14.4 3.9-21.7-1.1 6.3-3.6 11.9-6.6 17.4-.5-4.8-.9-9.6-1.3-14.4.2 2.1-.6 5.7-1.2 10.1l-6.3-15.6c-.2 8.4 2.5 16.4 5.8 24.2 0 1.3.1 2.7.3 4.1 0 .3.1.5.1.8-3.4-2-7.3-3.3-11.2-3.7 4.1 1.3 8.5 2.8 11.4 5.8.7 6.9.8 13.8 2.1 20.7.1.6.2 1.1.3 1.7-3.7-3.3-7.9-6.1-12.4-8.1-2.8-1.3-6.1-2.2-8.9-1 7.9 3.2 16.1 6.8 22 12.8 2.9 13.4 7.4 27.7 15 38.9 2.5-1.1-4.7-16.6-5.7-19.7-1.7-5.4-3-10.9-4.2-16.4 7-5.2 11-13.3 10.8-22.2-2.5 6.6-6.5 12.6-11.8 17.4-.1-.7-.3-1.3-.4-2-.3-1.8-1.3-7.3-1.6-9.1 1.1-2.3 15.3-13.5 12.7-24-1.7 7.1-6.6 13.5-13.2 16.9z"/>
    <path class="st26" d="M674.4 255.2c-3.5 3.2-6.2 7.4-7.5 12.4-4.2 17 6.9 36.5 25.6 36.7 10.2.1 19.5-6.8 22.6-16.5 2.9-9.3.7-21.1-4.7-29.2-8.9-13.1-25.8-12.6-36-3.4z"/>
    <path class="st27" d="M703.9 302.3c9.8-4.7 11.2-14.5 11.2-14.5-17.1 16.5-37.8 11.2-37.8 11.2s3.2 4.9 11.6 5.8c3.5.4 6.9 1.9 9.6 4.2.5.4 1 .8 1.6 1.2 5.6 3.8 11.1 5.6 10.5 13.8-.4 5.8-4.1 10.5-7.7 14.7-3.8 4.3-9.9 9.9-6.1 16.1 3 5 10.1 8.5 15.8 6.8.6-.2.6-1.1-.1-1.1-4.9-.3-10.9-2-12.9-7.2-2.2-5.7 3.5-9.1 7-12.4 4.2-4 8-8.9 9.3-14.6 1.1-5-1.4-15.1-10.4-19.5-.7-.3-1.4-.7-1.9-1.1-1.2-.8-1-2.7.3-3.4z"/>
    <path class="st28" d="M715.1 287.8c.2-.5.3-1 .4-1.5-9.1 4.2-19.8 6.1-28.7 1.7-7.1-3.5-12.2-10.9-12.9-18.9-.7-7.6 2.7-12.4 6.7-18.1-2.2 1.1-4.3 2.4-6.1 4.1-3.5 3.2-6.2 7.4-7.5 12.4-4.2 17 6.9 36.5 25.6 36.7 10.1.2 19.4-6.7 22.5-16.4z"/>
    <path class="st29" d="M684.1 271.1c2.3 7.9 10.1 14.3 18.9 9.3 5.8-3.3 7.7-10.8 5.5-16.8-2.4-6.5-9.9-11.4-16.7-8.9-7.8 2.7-9.5 10-7.7 16.4z"/>
    <path class="st29" d="M693.8 268.9c4 2.1 9.5 1.5 10.9-3.9.9-3.5-1.3-7.2-4.5-8.6-3.5-1.5-8.3-.4-9.9 3.2-1.9 4.1.3 7.6 3.5 9.3z"/>
    <path class="st28" d="M675.9 297.8c4.4 3.9 10 6.4 16.6 6.5 10.2.1 19.5-6.8 22.6-16.5.8-2.6 1.2-5.5 1.3-8.4-10.1 11.4-25.3 18.3-40.5 18.4zm-8.8-30.8c4.7-4.6 10.5-8.1 16.9-10 8.3-2.5 17.4-2.2 25.6.6-9-12-25.3-11.3-35.2-2.4-3.4 3-6 7-7.3 11.8z"/>
  </g>
  <path class="st30" d="M417.2 311.5s32.3 161.6 113.1 176.1 273.1-64.6 299-88.1c25.9-23.4 33.9-102.6 33.9-102.6l-446 14.6z"/>
  <path d="M585.9 486.9c-16.4 2.2-31.5 3.1-44.6 2.1 10.7-10.1 20.5-21.2 28.8-33.3 29.8-43.3 41.8-99.1 29.8-150.1l67.9-2.2c1.9 49.2-12.6 99.3-41.1 139.6-11.6 16.3-25.4 31.1-40.8 43.9zM690 340.2c1.2 43.6-4.1 88.3-21.6 127.9 15.9-4.8 31.8-10 47.1-15.5 23.9-34.7 40-74.9 42.3-116.8.6-11.8.1-23.6-1.4-35.4l-69.7 2.3c2 12.4 3 25.1 3.3 37.5z" style="opacity:.1;fill:#fff"/>
  <path class="st3" d="m863.2 297-49.4 1.6c-10.5 24.7-22.9 48.4-40.3 68.7-30.9 36.2-75.8 59.1-122.6 67.6-40.4 7.3-84.2 3.8-119.2-17.7-27.6-16.9-47.5-43.6-60.8-72.7-4.4-9.7-6.8-23.9-11.9-34.4l-41.7 1.4s32.3 161.6 113.1 176.1 273.1-64.6 299-88.1c25.7-23.3 33.8-102.5 33.8-102.5z"/>
  <path class="st3" d="m428.7 354.3 431.6-36.6c2.1-12.2 2.9-20.7 2.9-20.7l-422.7 13.8-23 2c.9 4.5 4.5 20.7 11.2 41.5z"/>
  <g>
    <path d="M410.2 329.3c-8.8 0-16.1-7.3-16.6-16.8-.5-9.8 6.5-18.2 15.7-18.7l457.2-26.9c9.2-.6 17 7 17.5 16.8s-6.5 18.2-15.7 18.7l-457.2 26.9h-.9z" style="fill:#96b70b"/>
  </g>
  <g>
    <path class="st30" d="M711.8 648.6c-5.9 0-11.7-1.7-17.3-5-40.1-24.1-63-139-65.4-152-1.2-6.1 2.9-12.1 9-13.2 6.1-1.2 12.1 2.9 13.2 9 8.6 45.3 31.2 122.6 54.9 136.8 3.8 2.3 6.4 2 8.2 1.4 28-8.7 61.5-110.8 76.3-180.7 1.3-6.1 7.3-10 13.4-8.7 6.1 1.3 10 7.3 8.7 13.4-6.4 30.2-41.1 181.9-91.7 197.6-3.1.9-6.2 1.4-9.3 1.4z"/>
  </g>
  <circle cx="387.9" cy="558.8" r="89.2" style="fill:#232528"/>
  <circle class="st34" cx="387.9" cy="558.8" r="52.5"/>
  <path d="M1113.3 336.5c-1.4-5.2-6.7-8.2-11.9-6.9-18.5 5-37.3 10.9-55.4 16.7-18.9 6-768.5 227.2-768.5 227.2-10.3 3-16.1 13.8-13.1 24.1 2.5 8.4 10.2 13.9 18.6 13.9 1.8 0 3.7-.3 5.5-.8l709.4-209.5c10.2-3 16-13.6 13.2-23.7 13.7-4 27.4-8.3 40.8-12.6 17.9-5.7 36.4-11.6 54.5-16.5 5.2-1.4 8.3-6.7 6.9-11.9z" style="fill:#ad9150"/>
  <path d="M288.5 610.8c-.8.2-1.5.4-2.3.5 109.6-45 218.9-90.6 327.9-137 15.6-4.6 31.3-9.2 47-13.9-67.9 33.5-135.8 67-203.6 100.5l-169 49.9zm568.9-168.1c82.5-37.8 165-75.5 247.5-113.3-1.1-.1-2.3-.1-3.4.3-18.5 5-37.3 10.9-55.4 16.7-.5.2-1.5.5-3 .9-94.2 36.9-186.9 77.7-277.6 122.6l91.9-27.2zm-453 93.4c-46.4 20.9-93 41.5-140.7 57.9.1 1.2.3 2.5.7 3.7 1.6 5.5 5.5 9.7 10.4 12l187.5-90.6c-20.4 6-39.9 11.7-57.9 17zm81.7 16.3 163-48.1c28.8-14.9 57.7-29.8 86.5-44.8 30.1-15.6 60.2-31.2 89.8-47.7-30.6 9.1-62.9 18.6-96 28.4L486.1 552.4zm174.3-51.5 104.3-30.8c62.5-32.4 125.1-64.5 188.1-96-16.4 4.9-34.5 10.2-53.9 15.9-80.1 35.6-159.6 72.6-238.5 110.9zM1010 390.7c-21.7 8.7-43.3 17.4-65 26.1l52.9-15.6c5.6-1.6 9.9-5.6 12.1-10.5z" style="fill:#bf9541"/>
  <path class="st34" d="M398.5 558.8c0 5.8-4.7 10.5-10.5 10.5s-10.5-4.7-10.5-10.5 4.7-10.5 10.5-10.5c5.7-.1 10.5 4.6 10.5 10.5z"/>
  <path class="st3" d="M1113.3 336.5c-1.4-5.2-6.7-8.2-11.9-6.9-18.5 5-37.3 10.9-55.4 16.7-1.8.6-9.9 3-23.2 7-19.4 15-39.2 29.4-60.8 40.7-26.9 14.2-56 23.4-85 32.6-38.1 12.1-76.1 24.1-114.2 36.2-91.8 29.2-183.7 58.3-276.5 84.3-42.1 11.8-84.5 23-127 33.5-21.7 5.4-48 10.8-69.6 2.4-4.6-1.8-9.2-5.4-13.8-8.8-9.3 3.6-14.4 13.8-11.5 23.5 2.5 8.4 10.2 13.9 18.6 13.9 1.8 0 3.7-.3 5.5-.8l709.4-209.5c10.2-3 16-13.6 13.2-23.7 13.7-4 27.4-8.3 40.8-12.6 17.9-5.7 36.4-11.6 54.5-16.5 5.2-1.5 8.3-6.8 6.9-12zm-229.2-52.9c-.2-3.3-1.2-6.3-2.8-8.9-5 3.1-10.8 4.9-16.5 6.3-18.4 4.5-37.4 6.2-56.3 7.9-127.4 11.3-255.1 22.7-383 23.1-6.2 0-15 .2-19.9-4.5-3.4-3.3-3.2-7.6-4.9-10.6-4.6 3.4-7.5 9.2-7.2 15.6.5 9.5 7.8 16.8 16.6 16.8h.9l457.2-26.9c9.3-.6 16.4-9 15.9-18.8z"/>
  <g>
    <path class="st10" d="m674.6 278.1-44.8 2.6c5.2 5.2 9.9 10.9 14 17 3.7 5.5 6.8 11.3 9.7 17.2l30.7-1.8c-.7-12-4.6-23.7-9.6-35zm-60.2 14.3c-1.5-3.6-3.3-7.1-5.4-10.4l-24.4 1.4c2.5 2.4 4.9 4.7 6.7 7.1 6.1 8.2 10.9 17.5 13.9 27.3l12-.7c1.4-8.2.3-17-2.8-24.7z"/>
  </g>
</svg>