<svg xmlns="http://www.w3.org/2000/svg" viewBox="0 0 865.71 586.55"><defs><style>.cls-1{isolation:isolate;}.cls-2{fill:#dde8cd;}.cls-3{fill:#626672;}.cls-14,.cls-4{fill:#020202;}.cls-14,.cls-15,.cls-4,.cls-9{mix-blend-mode:overlay;}.cls-4,.cls-9{opacity:0.2;}.cls-5{fill:#0e0f11;}.cls-6{fill:#5bbcc4;}.cls-7{fill:#3b9193;}.cls-8{fill:#679910;}.cls-15,.cls-9{fill:#fff;}.cls-10{fill:#e57505;}.cls-11{fill:#4c770e;}.cls-12{fill:#f2860f;}.cls-13{fill:#ff8a15;}.cls-14{opacity:0.3;}.cls-15{opacity:0.1;}.cls-16{fill:#888c99;}</style></defs><g class="cls-1"><g id="Layer_2" data-name="Layer 2"><g id="_ÎÓÈ_1" data-name="—ÎÓÈ_1"><path class="cls-2" d="M257.33,438.33C175.85,441.25,93,445,16.12,472.33c-5.56,2-11.51,4.43-14.41,9.57-6.52,11.51,6.85,24.1,18.9,29.58,22.4,10.2,46.53,16,70.57,21.23C253.52,568.24,419.87,583.16,586,586.17c83.45,1.51,168.79-.28,247.3-28.6,10.62-3.83,21.72-8.66,27.82-18.16,9.56-14.88,2.84-35.19-8.37-48.89C818.84,449,794.3,445.38,742.33,441.43c-53.73-4.08-107.59-6.41-161.46-7.52C473,431.7,365.12,434.48,257.33,438.33Z"/><path class="cls-3" d="M482.21,486.33a48.64,48.64,0,0,0,19.67-2.65c35.79-12.6,43.1-57.51,49-93.59,3.13-19.18,7.41-45.44,15.34-48.14,1.6-.54,17.9-4.05,96.47,40.59,41.89,23.8,80.24,49.27,80.62,49.53a11.88,11.88,0,0,0,13.17-19.78c-.39-.26-39.44-26.2-82.05-50.41-79.87-45.37-103.87-46.51-115.87-42.42-21.43,7.29-25.92,34.87-31.13,66.81-5.12,31.44-10.93,67.08-33.42,75-7.92,2.79-16.26,1.55-25.48-3.78-33.09-19.15-65-84.17-79.38-161.8A255.65,255.65,0,0,0,338.94,185l-58.06-74A228.2,228.2,0,0,0,161.54,32L102,15.94a11.88,11.88,0,0,0-6.19,22.94L155.35,55a204.24,204.24,0,0,1,106.83,70.7l58.06,74A231.82,231.82,0,0,1,365.77,300c16.06,86.7,50.87,154.92,90.85,178.05A59.52,59.52,0,0,0,482.21,486.33Z"/><path class="cls-4" d="M126,47a32.67,32.67,0,0,1,.6-10.67,210.05,210.05,0,0,1,136.89,68.11c9,10,16.92,20.76,24.87,31.54,29.93,40.57,57.52,82.39,87.45,123-6.13,62.93,13.58,128,53.58,176.94,8.69,10.63,18.53,20.71,30.75,27s27.23,8.25,39.74,2.6c9.91-4.48,17.31-13.22,22.83-22.59C535,422.08,539.28,397.71,544,374c2.64-13.23,6.24-27.64,17.16-35.55,15.09-10.92,36.11-4.27,53.09,3.39a710.25,710.25,0,0,1,83.11,44.35c-1.9,4.48-3.88,8.86-5.86,13.23-9.11-5.49-18.87-11.25-28.84-16.91C584.1,337.9,567.8,341.41,566.2,342c-7.93,2.7-12.21,29-15.34,48.14-5.88,36.08-13.19,81-49,93.59a48.64,48.64,0,0,1-19.67,2.65,59.52,59.52,0,0,1-25.59-8.27c-40-23.13-74.79-91.35-90.85-178a231.82,231.82,0,0,0-45.53-100.33l-58.06-74A204.24,204.24,0,0,0,155.35,55Z"/><circle class="cls-5" cx="735.53" cy="420.63" r="106.25" transform="translate(-82 643.3) rotate(-45)"/><circle class="cls-6" cx="735.53" cy="420.63" r="48.7" transform="translate(119.8 1002.71) rotate(-73.15)"/><circle class="cls-7" cx="735.53" cy="424.02" r="26.22" transform="translate(-77.74 180.33) rotate(-13.28)"/><path class="cls-7" d="M67.48,23.45,72.56,8.56A12.64,12.64,0,0,1,89,.82l73.23,27.63A12.64,12.64,0,0,1,169.8,44l-2.18,7a12.63,12.63,0,0,1-15.22,8.45L76.28,39.75A12.63,12.63,0,0,1,67.48,23.45Z"/><path class="cls-7" d="M788.14,228.32s-18.67-56-32.24-61.95S360.47,84.06,350.29,87.46s-28.85,35.64-28.85,35.64Z"/><path class="cls-4" d="M351.69,87.36c29.47.91,390.67,73.24,403.87,79a13.68,13.68,0,0,1,1.57.86c-6.12,11.51-16.76,35.59-26.44,48.13L361.4,132.1Z"/><path class="cls-8" d="M785.57,131.64c-1.64-4.55-6-7.78-10.55-9a20.77,20.77,0,0,0-3.35-7.8,22.58,22.58,0,0,0-15.38-9.41c-6.06-.75-10.61,1.42-15,5.39-.2.18.11.53.33.36,9.93-7.73,26.89-.79,29.73,10.89-4.41-.18-8.84,1.48-11.19,5.49-2.12,3.62-1.52,8.44,2.24,10.77,4.82,3,9.7-1.56,11.62-5.81a15.61,15.61,0,0,0,1.31-7.12c6.69,2.53,12.54,10.3,5.41,15.74a.69.69,0,0,0,.6,1.21C786,140.93,787.07,135.78,785.57,131.64ZM768.76,134a5.26,5.26,0,0,1-2.8,1.7,3.31,3.31,0,0,1-4-3c-.68-5.07,4.52-8.1,8.92-8.21.28,0,.57,0,.86,0a15,15,0,0,1-.32,4.08,12.69,12.69,0,0,1-2.39,5C769,133.8,768.87,133.92,768.76,134Z"/><path class="cls-4" d="M781.38,142.3c4.6-1.37,5.69-6.52,4.19-10.66-1.64-4.53-5.92-7.76-10.51-9l.33,2.75c6.69,2.54,12.52,10.29,5.39,15.73A.69.69,0,0,0,781.38,142.3Z"/><path class="cls-4" d="M761.77,110.5a18.55,18.55,0,0,1,3.65,0c.88.07,1.79.27,2.71.43a22.5,22.5,0,0,0-9.79-5.13,31.41,31.41,0,0,0-4.67,2l-.44.24A22,22,0,0,1,761.77,110.5Z"/><path class="cls-4" d="M770.92,124.5c.28,0,.57,0,.86,0a6.17,6.17,0,0,0-.39-2.53,12.69,12.69,0,0,0-9.29,3.15,8.29,8.29,0,0,1,2.7,1.39A11.09,11.09,0,0,1,770.92,124.5Z"/><path class="cls-9" d="M772.4,129.21c0,.28,0,.67.28.7a.47.47,0,0,0,.31-.12,3.61,3.61,0,0,0,1.17-1.8c1.14-3.21.43-6.76-1-9.76-.24-.52-.46-1.32-1.15-1.27a1.27,1.27,0,0,0-1,1.05,6.63,6.63,0,0,0,.57,2.4c.24.88.45,1.77.61,2.67A19.41,19.41,0,0,1,772.4,129.21Z"/><path class="cls-10" d="M757.56,180c3.24-9.38,1.21-19.72-1.6-29.24-1.48-5-3.22-10.07-6.29-14.31-5.72-7.9-15.22-12-24.25-15.65a4.5,4.5,0,0,0-3,0c.18-11.47-8.35-21.5-18.32-27.19a55.22,55.22,0,0,0-42-5.07c15.3,26.31,35.3,49.11,60.13,66.73C733.66,163.45,747,170.7,757.56,180Z"/><path class="cls-4" d="M722.18,155.31C733.66,163.45,747,170.7,757.56,180c3.24-9.38,1.21-19.72-1.6-29.24-.25-.85-.51-1.69-.78-2.54a20.57,20.57,0,0,1-5.72,1c-7.41.21-15-4.32-17.35-11.35a14.53,14.53,0,0,1,2.44-13.07c-3-1.46-6.09-2.75-9.13-4a4.5,4.5,0,0,0-3,0,23.44,23.44,0,0,0-1.21-7.69,55.36,55.36,0,0,1-5.76-.1c-7-.53-14-2.75-19.32-7.38a13.1,13.1,0,0,1-3.77-5.06c-1.83-4.94.94-8,4.82-10.25a55.34,55.34,0,0,0-35.08-1.78C677.35,114.89,697.35,137.69,722.18,155.31Z"/><path class="cls-11" d="M732.13,131.75c-1.49-13,14.74-21.54,16.88-26.36-5.63-2-11.28-3.87-17-5.58a31.35,31.35,0,0,1-12,12.06,24,24,0,0,1-8.69,3.22,24.75,24.75,0,0,1-10.61-1.25A42.5,42.5,0,0,1,684.16,104c5.42,13,11.27,24.47,21.18,34.54s19.86,15.73,34,16.55C734.51,148.3,733.11,140.24,732.13,131.75Z"/><path class="cls-4" d="M732.13,131.75c-1.49-13,14.74-21.54,16.88-26.36l-.43-.14a30.4,30.4,0,0,0-10.29,7.31c-4.46,4.73-7.69,10.48-10.87,16.16-1.59-3.61.05-7.75,1.69-11.34a13.81,13.81,0,0,1-16.89.11,25.08,25.08,0,0,0,13.89-6.28,43.7,43.7,0,0,0,7.36-8.41c.44-.63,1-1.33,1.5-2.06-1-.31-2-.63-3-.93a31.35,31.35,0,0,1-12,12.06,24,24,0,0,1-8.69,3.22,24.75,24.75,0,0,1-10.61-1.25A42.5,42.5,0,0,1,684.16,104c5.42,13,11.27,24.47,21.18,34.54q2.34,2.37,4.69,4.41a145.38,145.38,0,0,0,13.61,8.65,47.06,47.06,0,0,0,15.67,3.49C734.51,148.3,733.11,140.24,732.13,131.75Z"/><path class="cls-4" d="M685.32,105c-.15.23-.28.47-.41.72,5.22,12.31,11,23.16,20.43,32.77,9.91,10.08,19.86,15.73,34,16.55-3.72-5.23-5.39-11.24-6.41-17.63a19.55,19.55,0,0,1-3.11-1.7c-3.57-2.4-6.75-6.06-6.83-10.36-2.36,1.39-5.37,1.09-8,.19a19.64,19.64,0,0,1-10.09-8,12.19,12.19,0,0,1-1.37-3q-1.41-.32-2.79-.75A42.43,42.43,0,0,1,685.32,105Z"/><path class="cls-12" d="M652.33,78.43c-35-10-67.84,13.06-82.49,44-14.9,31.49-11.13,71.26,19.25,92.11a25.31,25.31,0,0,0,22.3,4.75,53.82,53.82,0,0,0,17.54-6.46c7.16-4.27,13-10.39,18.75-16.44,8.39-8.82,16.78-17.66,24.67-26.94,10.76-12.67,29-33.87,22.16-51.73C687.35,99.09,671.65,84,652.33,78.43Z"/><path class="cls-4" d="M694.51,117.76A66.55,66.55,0,0,0,681,96.17c.41,4,2.93,10.62-2.61,10.93-16.44.91-32.35,7.45-45.4,17.48S609.63,148,602.34,162.8c-1.72,3.46-3.33,7.09-6.07,9.82-4.73,4.72-12.18,5.92-18.68,4.37-5.87-1.41-11.06-4.77-15.7-8.66,2.1,18.09,10.73,34.95,27.2,46.25a25.31,25.31,0,0,0,22.3,4.75c1.62-.31,3.24-.69,4.84-1.13a82.54,82.54,0,0,0,9.94-9.23,197.42,197.42,0,0,0,21.92-28c5.81-9,10.91-18.44,17.64-26.74,7-8.62,15.55-15.78,24.08-22.86a37.2,37.2,0,0,0,6.17-6.05A22.73,22.73,0,0,0,694.51,117.76Z"/><path class="cls-4" d="M648.09,181c5.81-9,10.91-18.44,17.64-26.74,7-8.62,15.55-15.78,24.08-22.86a37.2,37.2,0,0,0,6.17-6.05,22.73,22.73,0,0,0-1.47-7.59,65.85,65.85,0,0,0-4.44-9.28c-5.47-.13-12.3,1.33-15.81,2-15.14,3.06-29.13,10.88-40.94,20.68-15.1,12.52-27.5,28.53-34.63,46.81a95.31,95.31,0,0,0-6.5,38.53,26,26,0,0,0,8,3.17,29.81,29.81,0,0,0,11.21-.38c1.62-.31,3.24-.69,4.84-1.13a63.4,63.4,0,0,0,5.09-4.34l1.93-2.21q7.66-8.79,15.47-17.46C642,189.92,645.16,185.53,648.09,181Z"/><path class="cls-12" d="M766.39,178.47c14.52,33.34-4.1,69-32.9,87.53-29.28,18.88-69.2,20.33-93.83-7.07A25.32,25.32,0,0,1,632,237.44a53.87,53.87,0,0,1,4.12-18.23c3.3-7.66,8.61-14.25,13.85-20.73,7.66-9.48,15.33-18.95,23.5-28,11.16-12.32,29.8-33.18,48.4-28.71C741.34,146.45,758.37,160,766.39,178.47Z"/><path class="cls-4" d="M749.72,241.27c-14.67,11.92-34.18,18.21-52.88,15.48-5.2-.76-10.5-2.3-14.39-5.83s-6-9.46-3.79-14.24c2.06-4.49,7-6.74,11.44-8.94,15.95-7.93,30-20.29,38.15-36.13,7-13.7,9.4-30.15,5.24-45.09-.09-.31-.19-.59-.29-.89a65.69,65.69,0,0,0-11.3-3.84c-18.6-4.47-37.24,16.39-48.4,28.71-8.17,9-15.84,18.5-23.5,28-5.24,6.48-10.55,13.07-13.85,20.73A53.87,53.87,0,0,0,632,237.44a25.32,25.32,0,0,0,7.63,21.49c24.63,27.4,64.55,25.95,93.83,7.07,17.54-11.31,31.29-28.95,36.09-48.55A83.5,83.5,0,0,1,749.72,241.27Z"/><path class="cls-4" d="M671.77,238.45c14.09-9.49,25.58-22.3,36.6-35.24,11.69-13.73,23.77-29.53,22.19-48.61-.49-5.88-2-9.52-4.1-11.52-1.51-.48-3-.93-4.56-1.29a21.31,21.31,0,0,0-2.82-.48c-7.8,1.49-17.63,10.36-23.25,16.59-14.27,15.83-27.91,32.2-41.55,48.57-7.79,9.35-15.65,18.83-22.1,29.1-.06.62-.11,1.25-.15,1.87a30.18,30.18,0,0,0,1.09,11.16,22.86,22.86,0,0,0,1.51,3.44C647.81,251.15,660.72,245.89,671.77,238.45Z"/><path class="cls-13" d="M659.94,124.38c-16.84,9.25-27.52,24.87-38.86,41.59-6.69,9.88-12.2,20.38-14.76,32.19-3.17,14.61-1.22,34.73,13.25,42.94,6.27,3.56,13.92,3.77,21.06,2.81,22.53-3,43.56-19.25,59-35.42,16.28-17.05,35.74-46.84,25.55-71.37-8.63-20.79-31.9-23.9-51.4-18.39A65.53,65.53,0,0,0,659.94,124.38Z"/><path class="cls-8" d="M733.36,102.16a17.09,17.09,0,0,0,11.34,4.45,6.61,6.61,0,0,0,4.56-1.36,1.83,1.83,0,0,0,.58-.85,2.15,2.15,0,0,0-.75-1.87,15.39,15.39,0,0,0-9.82-4.8C736.23,97.43,728.83,98,733.36,102.16Z"/><path class="cls-9" d="M749.09,102.53a15.39,15.39,0,0,0-9.82-4.8,17.41,17.41,0,0,0-4.31.16c-1.71,2.56,4,5.58,6.65,6.21a14,14,0,0,0,8.16-.49A3.51,3.51,0,0,0,749.09,102.53Z"/><path class="cls-9" d="M660.6,145.64c-2.34,1.94-4.53,3.94-6.56,5.92-8.41,8.19-17.29,17.79-21.11,29.13-4.75,14.09,4.61,29.19,20.61,27.84,5.32-.45,10.35-2.57,15.1-5,15.13-7.79,31.52-20.26,39.61-35.59,5.36-10.17,9.77-27.5-3.4-33.77C689.36,126.77,673,135.32,660.6,145.64Z"/><path class="cls-9" d="M668.44,156.18a13.05,13.05,0,0,0-3.38,5.55,11.55,11.55,0,0,0,1.3,8.21,16.61,16.61,0,0,0,15.47,8.58,16.13,16.13,0,0,0,13.88-10.86C701.71,148.91,679,145.09,668.44,156.18Z"/><path class="cls-9" d="M627.8,83.19c-10.92,1.7-20.84,8-27.91,16.5-2.36,2.84-4.48,6-5.23,9.63s.08,7.74,2.85,10.18c3.39,3,8.63,2.69,12.79,1s7.69-4.68,11.68-6.77a31.47,31.47,0,0,1,16.1-3.5c4.55.23,9.13,1.46,13.6.56,9.21-1.85,15.27-13.68,7-20S637.84,81.62,627.8,83.19Z"/><path class="cls-9" d="M721.47,214.36c-3.24,2.76-6.91,6.27-6.23,10.47a7.91,7.91,0,0,0,2.4,4.26c4.1,4,10.63,4.31,16.22,3a35.65,35.65,0,0,0,25-47.72c-1.43-3.76-7.8-17.07-13.23-13.87-4.23,2.48-4.06,16.32-5.7,20.66C736.41,200.59,729,207.94,721.47,214.36Z"/><path class="cls-4" d="M708,277.23a50.41,50.41,0,0,1-10.52-2.16,51.28,51.28,0,0,1-27.33-21.38c-2.27-3.63-4.12-7.81-3.64-12.06.57-5.14,4.46-8.84,8.65-11.86-5.38,4.73-13.31,5.73-20.27,4s-13.12-5.73-18.74-10.17c-7.12-5.62-13.72-12.12-18.17-20s-6.62-17.36-4.59-26.2a39.26,39.26,0,0,1-33.1,16.31,37.57,37.57,0,0,1-11.58-2.37,61.81,61.81,0,0,0,20.38,23.21,30.1,30.1,0,0,0,11.09,5.13,24,24,0,0,0,5.74.33c1.67,8.67,5.81,16.62,13.65,21.06a27.32,27.32,0,0,0,12.65,3.26,22.7,22.7,0,0,0,.9,4.24,30.07,30.07,0,0,0,6.54,10.33C657.65,278.94,683.8,283.55,708,277.23Z"/><path class="cls-10" d="M491.66,15.84c-11.29-5.44-24.56-4.42-36.92-2.3-6.51,1.12-13.1,2.55-18.87,5.78-10.75,6-17.23,17.33-23.19,28.11a5.62,5.62,0,0,0-.44,3.82c-14.35-1.91-28.2,7.3-36.79,19a69.71,69.71,0,0,0-12.56,51.92c35.25-15.31,66.79-37,92.54-65.56C467.33,43.38,478.4,27.67,491.66,15.84Z"/><path class="cls-4" d="M455.43,56.57c11.9-13.19,23-28.9,36.23-40.73-11.29-5.44-24.56-4.42-36.92-2.3-1.09.19-2.19.39-3.29.61a26.39,26.39,0,0,1,.41,7.32c-.83,9.32-7.63,18.21-16.8,20.08a18.32,18.32,0,0,1-16-5c-2.28,3.54-4.35,7.23-6.36,10.87a5.62,5.62,0,0,0-.44,3.82,29.92,29.92,0,0,0-9.82.38,67.49,67.49,0,0,1-1,7.21c-1.69,8.7-5.51,17.22-12.11,23.13a16.28,16.28,0,0,1-6.89,4c-6.46,1.57-9.85-2.36-12.15-7.55a69.84,69.84,0,0,0-7.4,43.72C398.14,106.82,429.68,85.1,455.43,56.57Z"/><path class="cls-11" d="M427.35,40.62c-16.48,0-24.82-21.66-30.55-25-3.33,6.76-6.53,13.57-9.51,20.48a39.64,39.64,0,0,1,13.35,16.78,30.05,30.05,0,0,1,2.76,11.38,31.11,31.11,0,0,1-3.13,13.11,53.6,53.6,0,0,1-14.81,19.36c17.16-4.87,32.35-10.53,46.44-21.47s22.65-22.58,25.76-40.16C448.47,40.08,438.15,40.65,427.35,40.62Z"/><path class="cls-4" d="M427.35,40.62c-16.48,0-24.82-21.66-30.55-25-.09.17-.17.34-.25.51a38.52,38.52,0,0,0,7.65,14c5.28,6.3,12,11.19,18.66,16-4.76,1.47-9.7-1.2-14-3.78a17.44,17.44,0,0,1-2.36,21.19c.19-6.51-2.18-12.93-5.82-18.34a55.38,55.38,0,0,0-9.46-10.47c-.73-.64-1.53-1.45-2.37-2.18-.53,1.19-1.08,2.37-1.6,3.56a39.64,39.64,0,0,1,13.35,16.78,30.05,30.05,0,0,1,2.76,11.38,31.11,31.11,0,0,1-3.13,13.11,53.6,53.6,0,0,1-14.81,19.36c17.16-4.87,32.35-10.53,46.44-21.47,2.22-1.72,4.28-3.46,6.22-5.24A181.41,181.41,0,0,0,451,54.19a59.6,59.6,0,0,0,6.68-19.14C448.47,40.08,438.15,40.65,427.35,40.62Z"/><path class="cls-4" d="M387,95.38a10,10,0,0,0,.84.61C404,91.27,418.45,85.65,431.9,75.21c14.1-10.94,22.65-22.58,25.76-40.16-7.11,3.89-14.89,5.1-23.05,5.44A25.92,25.92,0,0,1,432,44.14c-3.53,4.13-8.59,7.57-14,7,1.4,3.17.57,6.89-.94,10a24.78,24.78,0,0,1-11.55,11.46,15.74,15.74,0,0,1-3.91,1.29c-.4,1.15-.85,2.28-1.35,3.38A53.58,53.58,0,0,1,387,95.38Z"/><path class="cls-12" d="M348.73,132.82c-17.74,42.35,6.38,87,43.06,109.94,37.3,23.33,87.72,24.46,118.34-10.56,3.42-3.9,6.51-8.22,8.08-13.16a38,38,0,0,0,1.18-14.1A68.22,68.22,0,0,0,513.87,182c-4.3-9.61-11.12-17.84-17.85-25.93-9.83-11.83-19.67-23.66-30.15-34.91-14.3-15.37-38.2-41.37-61.6-35.42C379.8,92,358.55,109.41,348.73,132.82Z"/><path class="cls-4" d="M404.27,85.73a84.07,84.07,0,0,0-29.08,13.83c5.14.07,13.75-2.11,13.32,4.88-1.27,20.75,4.58,41.66,15.24,59.5s26,32.69,43.41,44c4.09,2.66,8.4,5.22,11.42,9,5.22,6.63,5.63,16.15,2.72,24.07-2.63,7.15-7.6,13.16-13.16,18.41,23,0,45.4-8.31,62-27.29,3.42-3.9,6.51-8.22,8.08-13.16a38,38,0,0,0,1.18-14.1q-.23-3.13-.71-6.24a103.81,103.81,0,0,0-10.1-13.82,249.07,249.07,0,0,0-31.85-31.62c-10.39-8.61-21.52-16.4-30.94-26.06-9.77-10-17.49-21.82-25.11-33.56A47.09,47.09,0,0,0,414,85,29.14,29.14,0,0,0,404.27,85.73Z"/><path class="cls-4" d="M476.73,153.26c-10.39-8.61-21.52-16.4-30.94-26.06-9.77-10-17.49-21.82-25.11-33.56A47.09,47.09,0,0,0,414,85a29.14,29.14,0,0,0-9.73.73A82.82,82.82,0,0,0,392,89.93c-1,6.83-.15,15.62.23,20.12,1.59,19.45,9.35,38.13,19.89,54.39,13.48,20.78,31.73,38.69,53.6,50.33a120.19,120.19,0,0,0,47.35,13.83,32.59,32.59,0,0,0,5.16-9.56,38,38,0,0,0,1.18-14.1q-.23-3.13-.71-6.24a77.35,77.35,0,0,0-4.7-7l-2.48-2.75q-9.9-10.91-19.61-22C487,162.19,482,157.61,476.73,153.26Z"/><path class="cls-12" d="M491,4.54C535-8.75,576.87,19.85,595.91,58.7c19.36,39.5,15.29,89.78-22.7,116.63-4.23,3-8.85,5.62-13.92,6.67a37.86,37.86,0,0,1-14.15-.28,68.15,68.15,0,0,1-22.26-7.85c-9.11-5.27-16.6-12.9-24-20.43-10.74-11-21.5-22-31.61-33.59C453.5,104,430.1,77.59,438.43,54.93,447.15,31.23,466.7,11.89,491,4.54Z"/><path class="cls-14" d="M567.29,34.71c12.79,20.15,17.8,45.54,11.61,68.59-1.72,6.41-4.43,12.83-9.43,17.19s-12.74,6.09-18.41,2.65c-5.34-3.24-7.42-9.79-9.53-15.67-7.59-21.17-21-40.61-39.68-53.16-16.14-10.86-36.43-16.23-55.77-13.22-.41.06-.77.15-1.16.23a83.28,83.28,0,0,0-6.49,13.61C430.1,77.59,453.5,104,467.31,119.85c10.11,11.58,20.87,22.59,31.61,33.59,7.36,7.53,14.85,15.16,24,20.43a68.15,68.15,0,0,0,22.26,7.85,37.86,37.86,0,0,0,14.15.28c5.07-1.05,9.69-3.68,13.92-6.67,38-26.85,42.06-77.13,22.7-116.63C584.32,35,564.22,15.2,540.35,6.29A105.17,105.17,0,0,1,567.29,34.71Z"/><path class="cls-4" d="M552.26,132C542.44,113,528.06,96.67,513.47,81,498,64.26,479.94,46.79,455.77,46c-7.43-.26-12.22,1.07-15,3.44-.83,1.82-1.61,3.65-2.3,5.53a27.18,27.18,0,0,0-1,3.46c.71,10,10.38,23.64,17.37,31.6,17.74,20.23,36.26,39.75,54.78,59.27,10.57,11.15,21.3,22.4,33.23,32,.78.16,1.55.32,2.33.46a37.86,37.86,0,0,0,14.15.28,27.56,27.56,0,0,0,4.53-1.39C564.65,164,560,147,552.26,132Z"/><path class="cls-13" d="M407.47,130.05c9.12,22.49,27.14,38.19,46.43,54.87,11.4,9.85,23.75,18.3,38.19,23.25,17.86,6.13,43.37,6.65,55.81-10.29,5.38-7.34,6.76-16.89,6.62-26-.46-28.69-17.72-57.46-35.72-79.21-19-22.93-53.46-51.72-85.73-42.56-27.34,7.76-34.68,36.48-30.64,61.74A83,83,0,0,0,407.47,130.05Z"/><path class="cls-8" d="M390.44,34.71a21.58,21.58,0,0,0,7.25-13.56,8.35,8.35,0,0,0-1-5.92,2.35,2.35,0,0,0-1-.86,2.75,2.75,0,0,0-2.45.68,19.34,19.34,0,0,0-7.47,11.6C384.93,30.42,384.55,39.78,390.44,34.71Z"/><path class="cls-9" d="M393.22,15.05a19.34,19.34,0,0,0-7.47,11.6,21.93,21.93,0,0,0-.43,5.42c3,2.53,7.59-4.24,8.77-7.42a17.74,17.74,0,0,0,.58-10.3A4.06,4.06,0,0,0,393.22,15.05Z"/><path class="cls-9" d="M434.23,132.36c2.09,3.22,4.28,6.27,6.45,9.1,9,11.76,19.76,24.31,33.42,30.77,17,8,37.29-1.48,37.95-21.75.22-6.73-1.7-13.36-4.06-19.67-7.54-20.12-20.77-42.51-38.8-54.91-11.95-8.22-33-16.31-42.85-.72C414.8,93.52,423.12,115.28,434.23,132.36Z"/><path class="cls-9" d="M448.6,124.08a16.56,16.56,0,0,0,6.47,5.07,14.6,14.6,0,0,0,10.48-.43,21,21,0,0,0,13.05-18.13,20.38,20.38,0,0,0-11.58-19C444.39,81.29,436.25,109.22,448.6,124.08Z"/><path class="cls-9" d="M351.08,164.29c.52,13.94,7,27.32,16.58,37.43,3.21,3.38,6.89,6.5,11.31,8s9.71,1,13.18-2.08c4.23-3.81,4.65-10.42,3.08-15.89s-4.74-10.33-6.77-15.65a39.79,39.79,0,0,1-2-20.7c1-5.67,3.18-11.24,2.71-17-1-11.82-14.9-21.17-24-11.66S350.6,151.46,351.08,164.29Z"/><path class="cls-9" d="M529.38,66.17c3,4.47,6.84,9.59,12.21,9.34a9.92,9.92,0,0,0,5.7-2.37c5.64-4.55,7-12.7,6.14-19.9a45,45,0,0,0-56.15-38.45c-4.92,1.24-22.56,7.26-19.35,14.55,2.5,5.66,19.88,7.5,25.08,10.19C514.32,45.4,522.43,55.79,529.38,66.17Z"/><path class="cls-14" d="M606.24,92.32A63.91,63.91,0,0,1,602,105.19a64.79,64.79,0,0,1-30.85,31.13c-4.89,2.3-10.39,4-15.66,2.79-6.35-1.48-10.42-6.9-13.59-12.61C547,134,547.1,144,544,152.53s-9.11,15.61-15.51,22c-8.1,8.09-17.22,15.41-27.79,19.83s-22.73,5.74-33.52,1.9a49.58,49.58,0,0,1,15.57,43.91A47.62,47.62,0,0,1,478,254.34a78,78,0,0,0,32.1-22.14c3.42-3.9,6.51-8.22,8.08-13.16a29.86,29.86,0,0,0,1.25-7.15c11.12-.81,21.7-4.83,28.44-14a34.76,34.76,0,0,0,6-15.38,27.61,27.61,0,0,0,5.44-.5c5.07-1.05,9.69-3.68,13.92-6.67C601,155.71,610.59,123.6,606.24,92.32Z"/><path class="cls-6" d="M788.14,228.32S645.59,367.48,511.51,336.93,323.14,304.68,321.44,228.32s0-105.22,0-105.22Z"/><path class="cls-4" d="M320.7,160.89c.09-26.67.74-37.79.74-37.79l466.7,105.22s-5.59,5.45-15.56,13.94l-4.63-.73c-84.74-13.2-167.59-36.19-251.42-54.31C452.09,173.29,386.45,162.26,320.7,160.89Z"/><path class="cls-15" d="M461.29,154.63a567.52,567.52,0,0,0,212.16,154,339,339,0,0,1-60.91,23.86c-10-3.13-20-6.61-29.81-10.55C517,295.66,458.52,252.93,409.1,202.2c-21.16-21.72-41.05-45.63-55.89-71.94Z"/><path class="cls-15" d="M708.05,289.27q-15-3.06-29.75-7.09a440.49,440.49,0,0,1-192.09-111c-4.58-4.52-9-9.19-13.38-13.91l90.81,20.47a529.37,529.37,0,0,0,62.76,51.16,427.76,427.76,0,0,0,97.09,50.48Q716.09,284.29,708.05,289.27Z"/><path class="cls-4" d="M320.77,184.85a301.48,301.48,0,0,0,67.36,102.83,211.19,211.19,0,0,0,37.65,30.2c-72.12-17-103.07-32.21-104.34-89.56-.37-16.7-.58-31.13-.68-43.48Z"/><path class="cls-4" d="M511.51,336.93l-2.18-.49c7.16-1.1,14.29-2.61,21.38-4.11q75.9-16,152.44-28.72C633.27,330.25,571.55,350.61,511.51,336.93Z"/><path class="cls-4" d="M345.71,128.57c4.8,41.68,23.16,81.9,52.51,112,41.72,42.73,104.45,63.87,163.52,55.11,33.42-5,65.18-19.43,91.42-40.62,19-15.37,29.4-30.2,37.73-48.62l97.25,21.93S645.59,367.48,511.51,336.93,323.14,304.68,321.44,228.32s0-105.22,0-105.22Z"/><path class="cls-16" d="M471.34,511.38a48.67,48.67,0,0,0,19.44-4c34.81-15.09,39-60.4,42.28-96.8,1.77-19.35,4.19-45.85,11.92-49.11,1.55-.65,17.56-5.29,99.08,33.71,43.46,20.8,83.5,43.51,83.9,43.74a11.88,11.88,0,0,0,11.74-20.66c-.4-.23-41.18-23.36-85.38-44.51-82.86-39.64-106.88-39.09-118.57-34.17-20.86,8.78-23.4,36.61-26.35,68.83-2.9,31.73-6.19,67.69-28.07,77.17-7.71,3.34-16.1,2.69-25.68-2-34.36-16.77-70.75-79.39-90.56-155.82A255.55,255.55,0,0,0,307.24,220.9l-63.12-69.76a228.16,228.16,0,0,0-124.6-70.4L59,68.9a11.88,11.88,0,0,0-4.56,23.32L115,104.06a204.26,204.26,0,0,1,111.54,63l63.12,69.76a231.8,231.8,0,0,1,52.47,96.88c22.12,85.35,61.64,151,103.14,171.21A59.43,59.43,0,0,0,471.34,511.38Z"/><path class="cls-4" d="M250.88,163a359,359,0,0,1,97.87,147.52c10.95,31.41,17.49,64.27,29.27,95.38s29.79,61.3,57.8,79.24c7.59,4.87,15.93,8.8,24.84,10.21,26.85,4.26,54.53-19.08,57.33-46.12q3.62-34.86,10.64-69.25c1.69-8.26,4.07-17.31,11.09-22,7.44-4.95,17.34-3.15,26-.82,51.17,13.82,98.15,39.71,147.62,58.75,4.92,1.89,10.5,3.71,15.31,1.55a7.58,7.58,0,0,0,3.45-3.45c4.77,2.64,7.53,4.21,7.63,4.26A11.88,11.88,0,0,1,728,438.9c-.4-.23-40.44-22.94-83.9-43.74-81.52-39-97.53-34.36-99.08-33.71-7.73,3.26-10.15,29.76-11.92,49.11-3.33,36.4-7.47,81.71-42.28,96.8a48.67,48.67,0,0,1-19.44,4,59.43,59.43,0,0,1-26.11-6.45c-41.5-20.26-81-85.86-103.14-171.21a231.8,231.8,0,0,0-52.47-96.88L226.5,167.08a204.26,204.26,0,0,0-111.54-63l-16.77-3.28C153.67,96.84,209,125.13,250.88,163Z"/><path class="cls-6" d="M25.1,78.81l4-15.21A12.63,12.63,0,0,1,45,54.73l75,22.41a12.63,12.63,0,0,1,8.67,15l-1.69,7.1a12.63,12.63,0,0,1-14.58,9.51L35,94.46A12.63,12.63,0,0,1,25.1,78.81Z"/><path class="cls-4" d="M735.53,526.87a106.25,106.25,0,1,0,0-212.49c-2.77,0-5.51.14-8.22.35,5.49,3.9,15.62,5.86,19.81,8.21a72.77,72.77,0,0,1,24.21,21.82A74.32,74.32,0,0,1,778,415.94c-8.49,19-25.13,33.81-44.28,42S693,468,672.37,465.45c-13.18-1.63-26.87-5.95-38.22-12.95A106.3,106.3,0,0,0,735.53,526.87Z"/><path class="cls-4" d="M169.8,44a12.47,12.47,0,0,0-.23-8.06,41.08,41.08,0,0,1-11.78,4.65c-11.3,2.51-23.08.89-34.47-1.17-11.75-2.11-24.11-5-32.59-13.45C82.5,17.84,84,10.13,84.73.06a12.59,12.59,0,0,0-12.17,8.5L67.48,23.45a12.63,12.63,0,0,0,8.8,16.3L152.4,59.46A12.63,12.63,0,0,0,167.62,51Z"/><path class="cls-4" d="M124.93,80.08a33.57,33.57,0,0,1-15.4,8.82c-9.91,2.59-20.37,1.43-30.49-.13S59.07,85.32,49.2,83c-5.37-1.25-11-2.73-15-6.51-7.88-7.4-3.89-14.11.25-20.23a12.55,12.55,0,0,0-5.34,7.3l-4,15.21A12.63,12.63,0,0,0,35,94.46l77.33,14.31a12.65,12.65,0,0,0,14.59-9.51l1.68-7.1A12.55,12.55,0,0,0,124.93,80.08Z"/></g></g></g></svg>